G04 #@! TF.GenerationSoftware,KiCad,Pcbnew,(5.1.4)-1*
G04 #@! TF.CreationDate,2023-10-04T08:31:50-04:00*
G04 #@! TF.ProjectId,ai03-pcb-guide,61693033-2d70-4636-922d-67756964652e,rev?*
G04 #@! TF.SameCoordinates,Original*
G04 #@! TF.FileFunction,Legend,Bot*
G04 #@! TF.FilePolarity,Positive*
%FSLAX46Y46*%
G04 Gerber Fmt 4.6, Leading zero omitted, Abs format (unit mm)*
G04 Created by KiCad (PCBNEW (5.1.4)-1) date 2023-10-04 08:31:50*
%MOMM*%
%LPD*%
G04 APERTURE LIST*
%ADD10C,0.120000*%
%ADD11C,0.150000*%
%ADD12R,1.502000X1.302000*%
%ADD13O,1.802000X2.802000*%
%ADD14R,0.602000X2.352000*%
%ADD15R,0.652000X1.602000*%
%ADD16R,1.602000X0.652000*%
%ADD17R,1.902000X1.202000*%
%ADD18C,0.100000*%
%ADD19C,1.077000*%
%ADD20C,1.852000*%
%ADD21C,2.352000*%
%ADD22C,4.089800*%
%ADD23C,2.352000*%
%ADD24C,1.352000*%
%ADD25R,1.302000X1.002000*%
G04 APERTURE END LIST*
D10*
X226536000Y-97027000D02*
X222536000Y-97027000D01*
X226536000Y-93727000D02*
X226536000Y-97027000D01*
D11*
X199350000Y-88900000D02*
X199350000Y-94350000D01*
X207050000Y-88900000D02*
X207050000Y-94350000D01*
X199350000Y-94350000D02*
X207050000Y-94350000D01*
X219869000Y-111788000D02*
X218594000Y-111788000D01*
X230219000Y-112363000D02*
X229544000Y-112363000D01*
X230219000Y-102013000D02*
X229544000Y-102013000D01*
X219869000Y-102013000D02*
X220544000Y-102013000D01*
X219869000Y-112363000D02*
X220544000Y-112363000D01*
X219869000Y-102013000D02*
X219869000Y-102688000D01*
X230219000Y-102013000D02*
X230219000Y-102688000D01*
X230219000Y-112363000D02*
X230219000Y-111688000D01*
X219869000Y-112363000D02*
X219869000Y-111788000D01*
X197862500Y-118050000D02*
X192662500Y-118050000D01*
X192662500Y-118050000D02*
X192662500Y-123250000D01*
X192662500Y-123250000D02*
X197862500Y-123250000D01*
X197862500Y-123250000D02*
X197862500Y-118050000D01*
X196262500Y-120650000D02*
G75*
G03X196262500Y-120650000I-1000000J0D01*
G01*
D10*
X234240000Y-112177328D02*
X234240000Y-111660172D01*
X235660000Y-112177328D02*
X235660000Y-111660172D01*
X200108750Y-99477328D02*
X200108750Y-98960172D01*
X201528750Y-99477328D02*
X201528750Y-98960172D01*
X203283750Y-99477328D02*
X203283750Y-98960172D01*
X204703750Y-99477328D02*
X204703750Y-98960172D01*
X213435000Y-98166422D02*
X213435000Y-98683578D01*
X212015000Y-98166422D02*
X212015000Y-98683578D01*
X196733750Y-106170814D02*
X196733750Y-104966686D01*
X198553750Y-106170814D02*
X198553750Y-104966686D01*
X275637500Y-117343750D02*
X275637500Y-113443750D01*
X273637500Y-117343750D02*
X273637500Y-113443750D01*
X275637500Y-117343750D02*
X273637500Y-117343750D01*
X256587500Y-118137500D02*
X256587500Y-114237500D01*
X254587500Y-118137500D02*
X254587500Y-114237500D01*
X256587500Y-118137500D02*
X254587500Y-118137500D01*
X275637500Y-99087500D02*
X275637500Y-95187500D01*
X273637500Y-99087500D02*
X273637500Y-95187500D01*
X275637500Y-99087500D02*
X273637500Y-99087500D01*
X256587500Y-99087500D02*
X256587500Y-95187500D01*
X254587500Y-99087500D02*
X254587500Y-95187500D01*
X256587500Y-99087500D02*
X254587500Y-99087500D01*
X215022500Y-113247672D02*
X215022500Y-113764828D01*
X213602500Y-113247672D02*
X213602500Y-113764828D01*
X228604578Y-117804000D02*
X228087422Y-117804000D01*
X228604578Y-116384000D02*
X228087422Y-116384000D01*
X234748000Y-104525578D02*
X234748000Y-104008422D01*
X236168000Y-104525578D02*
X236168000Y-104008422D01*
X215571000Y-98620078D02*
X215571000Y-98102922D01*
X216991000Y-98620078D02*
X216991000Y-98102922D01*
X214888578Y-107136000D02*
X214371422Y-107136000D01*
X214888578Y-105716000D02*
X214371422Y-105716000D01*
X220293000Y-95118422D02*
X220293000Y-95635578D01*
X218873000Y-95118422D02*
X218873000Y-95635578D01*
X228779000Y-95508578D02*
X228779000Y-94991422D01*
X230199000Y-95508578D02*
X230199000Y-94991422D01*
D11*
X225012190Y-92903190D02*
X225012190Y-93379380D01*
X225345523Y-92379380D02*
X225012190Y-92903190D01*
X224678857Y-92379380D01*
X223821714Y-93379380D02*
X224393142Y-93379380D01*
X224107428Y-93379380D02*
X224107428Y-92379380D01*
X224202666Y-92522238D01*
X224297904Y-92617476D01*
X224393142Y-92665095D01*
X204938095Y-90384380D02*
X204938095Y-91193904D01*
X204890476Y-91289142D01*
X204842857Y-91336761D01*
X204747619Y-91384380D01*
X204557142Y-91384380D01*
X204461904Y-91336761D01*
X204414285Y-91289142D01*
X204366666Y-91193904D01*
X204366666Y-90384380D01*
X203938095Y-91336761D02*
X203795238Y-91384380D01*
X203557142Y-91384380D01*
X203461904Y-91336761D01*
X203414285Y-91289142D01*
X203366666Y-91193904D01*
X203366666Y-91098666D01*
X203414285Y-91003428D01*
X203461904Y-90955809D01*
X203557142Y-90908190D01*
X203747619Y-90860571D01*
X203842857Y-90812952D01*
X203890476Y-90765333D01*
X203938095Y-90670095D01*
X203938095Y-90574857D01*
X203890476Y-90479619D01*
X203842857Y-90432000D01*
X203747619Y-90384380D01*
X203509523Y-90384380D01*
X203366666Y-90432000D01*
X202604761Y-90860571D02*
X202461904Y-90908190D01*
X202414285Y-90955809D01*
X202366666Y-91051047D01*
X202366666Y-91193904D01*
X202414285Y-91289142D01*
X202461904Y-91336761D01*
X202557142Y-91384380D01*
X202938095Y-91384380D01*
X202938095Y-90384380D01*
X202604761Y-90384380D01*
X202509523Y-90432000D01*
X202461904Y-90479619D01*
X202414285Y-90574857D01*
X202414285Y-90670095D01*
X202461904Y-90765333D01*
X202509523Y-90812952D01*
X202604761Y-90860571D01*
X202938095Y-90860571D01*
X201414285Y-91384380D02*
X201985714Y-91384380D01*
X201700000Y-91384380D02*
X201700000Y-90384380D01*
X201795238Y-90527238D01*
X201890476Y-90622476D01*
X201985714Y-90670095D01*
X225805904Y-114090380D02*
X225805904Y-114899904D01*
X225758285Y-114995142D01*
X225710666Y-115042761D01*
X225615428Y-115090380D01*
X225424952Y-115090380D01*
X225329714Y-115042761D01*
X225282095Y-114995142D01*
X225234476Y-114899904D01*
X225234476Y-114090380D01*
X224234476Y-115090380D02*
X224805904Y-115090380D01*
X224520190Y-115090380D02*
X224520190Y-114090380D01*
X224615428Y-114233238D01*
X224710666Y-114328476D01*
X224805904Y-114376095D01*
X196595833Y-125118761D02*
X196452976Y-125166380D01*
X196214880Y-125166380D01*
X196119642Y-125118761D01*
X196072023Y-125071142D01*
X196024404Y-124975904D01*
X196024404Y-124880666D01*
X196072023Y-124785428D01*
X196119642Y-124737809D01*
X196214880Y-124690190D01*
X196405357Y-124642571D01*
X196500595Y-124594952D01*
X196548214Y-124547333D01*
X196595833Y-124452095D01*
X196595833Y-124356857D01*
X196548214Y-124261619D01*
X196500595Y-124214000D01*
X196405357Y-124166380D01*
X196167261Y-124166380D01*
X196024404Y-124214000D01*
X195691071Y-124166380D02*
X195452976Y-125166380D01*
X195262500Y-124452095D01*
X195072023Y-125166380D01*
X194833928Y-124166380D01*
X193929166Y-125166380D02*
X194500595Y-125166380D01*
X194214880Y-125166380D02*
X194214880Y-124166380D01*
X194310119Y-124309238D01*
X194405357Y-124404476D01*
X194500595Y-124452095D01*
X237052380Y-111752083D02*
X236576190Y-111418750D01*
X237052380Y-111180654D02*
X236052380Y-111180654D01*
X236052380Y-111561607D01*
X236100000Y-111656845D01*
X236147619Y-111704464D01*
X236242857Y-111752083D01*
X236385714Y-111752083D01*
X236480952Y-111704464D01*
X236528571Y-111656845D01*
X236576190Y-111561607D01*
X236576190Y-111180654D01*
X236385714Y-112609226D02*
X237052380Y-112609226D01*
X236004761Y-112371130D02*
X236719047Y-112133035D01*
X236719047Y-112752083D01*
X202921130Y-99052083D02*
X202444940Y-98718750D01*
X202921130Y-98480654D02*
X201921130Y-98480654D01*
X201921130Y-98861607D01*
X201968750Y-98956845D01*
X202016369Y-99004464D01*
X202111607Y-99052083D01*
X202254464Y-99052083D01*
X202349702Y-99004464D01*
X202397321Y-98956845D01*
X202444940Y-98861607D01*
X202444940Y-98480654D01*
X201921130Y-99385416D02*
X201921130Y-100004464D01*
X202302083Y-99671130D01*
X202302083Y-99813988D01*
X202349702Y-99909226D01*
X202397321Y-99956845D01*
X202492559Y-100004464D01*
X202730654Y-100004464D01*
X202825892Y-99956845D01*
X202873511Y-99909226D01*
X202921130Y-99813988D01*
X202921130Y-99528273D01*
X202873511Y-99433035D01*
X202825892Y-99385416D01*
X206096130Y-99052083D02*
X205619940Y-98718750D01*
X206096130Y-98480654D02*
X205096130Y-98480654D01*
X205096130Y-98861607D01*
X205143750Y-98956845D01*
X205191369Y-99004464D01*
X205286607Y-99052083D01*
X205429464Y-99052083D01*
X205524702Y-99004464D01*
X205572321Y-98956845D01*
X205619940Y-98861607D01*
X205619940Y-98480654D01*
X205191369Y-99433035D02*
X205143750Y-99480654D01*
X205096130Y-99575892D01*
X205096130Y-99813988D01*
X205143750Y-99909226D01*
X205191369Y-99956845D01*
X205286607Y-100004464D01*
X205381845Y-100004464D01*
X205524702Y-99956845D01*
X206096130Y-99385416D01*
X206096130Y-100004464D01*
X211527380Y-98258333D02*
X211051190Y-97925000D01*
X211527380Y-97686904D02*
X210527380Y-97686904D01*
X210527380Y-98067857D01*
X210575000Y-98163095D01*
X210622619Y-98210714D01*
X210717857Y-98258333D01*
X210860714Y-98258333D01*
X210955952Y-98210714D01*
X211003571Y-98163095D01*
X211051190Y-98067857D01*
X211051190Y-97686904D01*
X211527380Y-99210714D02*
X211527380Y-98639285D01*
X211527380Y-98925000D02*
X210527380Y-98925000D01*
X210670238Y-98829761D01*
X210765476Y-98734523D01*
X210813095Y-98639285D01*
X199392321Y-105235416D02*
X199392321Y-104902083D01*
X199916130Y-104902083D02*
X198916130Y-104902083D01*
X198916130Y-105378273D01*
X199916130Y-106283035D02*
X199916130Y-105711607D01*
X199916130Y-105997321D02*
X198916130Y-105997321D01*
X199058988Y-105902083D01*
X199154226Y-105806845D01*
X199201845Y-105711607D01*
X277089880Y-114355654D02*
X276089880Y-114355654D01*
X276089880Y-114593750D01*
X276137500Y-114736607D01*
X276232738Y-114831845D01*
X276327976Y-114879464D01*
X276518452Y-114927083D01*
X276661309Y-114927083D01*
X276851785Y-114879464D01*
X276947023Y-114831845D01*
X277042261Y-114736607D01*
X277089880Y-114593750D01*
X277089880Y-114355654D01*
X276423214Y-115784226D02*
X277089880Y-115784226D01*
X276042261Y-115546130D02*
X276756547Y-115308035D01*
X276756547Y-115927083D01*
X258039880Y-115149404D02*
X257039880Y-115149404D01*
X257039880Y-115387500D01*
X257087500Y-115530357D01*
X257182738Y-115625595D01*
X257277976Y-115673214D01*
X257468452Y-115720833D01*
X257611309Y-115720833D01*
X257801785Y-115673214D01*
X257897023Y-115625595D01*
X257992261Y-115530357D01*
X258039880Y-115387500D01*
X258039880Y-115149404D01*
X257039880Y-116054166D02*
X257039880Y-116673214D01*
X257420833Y-116339880D01*
X257420833Y-116482738D01*
X257468452Y-116577976D01*
X257516071Y-116625595D01*
X257611309Y-116673214D01*
X257849404Y-116673214D01*
X257944642Y-116625595D01*
X257992261Y-116577976D01*
X258039880Y-116482738D01*
X258039880Y-116197023D01*
X257992261Y-116101785D01*
X257944642Y-116054166D01*
X277089880Y-96099404D02*
X276089880Y-96099404D01*
X276089880Y-96337500D01*
X276137500Y-96480357D01*
X276232738Y-96575595D01*
X276327976Y-96623214D01*
X276518452Y-96670833D01*
X276661309Y-96670833D01*
X276851785Y-96623214D01*
X276947023Y-96575595D01*
X277042261Y-96480357D01*
X277089880Y-96337500D01*
X277089880Y-96099404D01*
X276185119Y-97051785D02*
X276137500Y-97099404D01*
X276089880Y-97194642D01*
X276089880Y-97432738D01*
X276137500Y-97527976D01*
X276185119Y-97575595D01*
X276280357Y-97623214D01*
X276375595Y-97623214D01*
X276518452Y-97575595D01*
X277089880Y-97004166D01*
X277089880Y-97623214D01*
X258039880Y-96099404D02*
X257039880Y-96099404D01*
X257039880Y-96337500D01*
X257087500Y-96480357D01*
X257182738Y-96575595D01*
X257277976Y-96623214D01*
X257468452Y-96670833D01*
X257611309Y-96670833D01*
X257801785Y-96623214D01*
X257897023Y-96575595D01*
X257992261Y-96480357D01*
X258039880Y-96337500D01*
X258039880Y-96099404D01*
X258039880Y-97623214D02*
X258039880Y-97051785D01*
X258039880Y-97337500D02*
X257039880Y-97337500D01*
X257182738Y-97242261D01*
X257277976Y-97147023D01*
X257325595Y-97051785D01*
X213019642Y-113339583D02*
X213067261Y-113291964D01*
X213114880Y-113149107D01*
X213114880Y-113053869D01*
X213067261Y-112911011D01*
X212972023Y-112815773D01*
X212876785Y-112768154D01*
X212686309Y-112720535D01*
X212543452Y-112720535D01*
X212352976Y-112768154D01*
X212257738Y-112815773D01*
X212162500Y-112911011D01*
X212114880Y-113053869D01*
X212114880Y-113149107D01*
X212162500Y-113291964D01*
X212210119Y-113339583D01*
X212114880Y-113672916D02*
X212114880Y-114339583D01*
X213114880Y-113911011D01*
X228512666Y-115801142D02*
X228560285Y-115848761D01*
X228703142Y-115896380D01*
X228798380Y-115896380D01*
X228941238Y-115848761D01*
X229036476Y-115753523D01*
X229084095Y-115658285D01*
X229131714Y-115467809D01*
X229131714Y-115324952D01*
X229084095Y-115134476D01*
X229036476Y-115039238D01*
X228941238Y-114944000D01*
X228798380Y-114896380D01*
X228703142Y-114896380D01*
X228560285Y-114944000D01*
X228512666Y-114991619D01*
X227655523Y-114896380D02*
X227846000Y-114896380D01*
X227941238Y-114944000D01*
X227988857Y-114991619D01*
X228084095Y-115134476D01*
X228131714Y-115324952D01*
X228131714Y-115705904D01*
X228084095Y-115801142D01*
X228036476Y-115848761D01*
X227941238Y-115896380D01*
X227750761Y-115896380D01*
X227655523Y-115848761D01*
X227607904Y-115801142D01*
X227560285Y-115705904D01*
X227560285Y-115467809D01*
X227607904Y-115372571D01*
X227655523Y-115324952D01*
X227750761Y-115277333D01*
X227941238Y-115277333D01*
X228036476Y-115324952D01*
X228084095Y-115372571D01*
X228131714Y-115467809D01*
X237465142Y-104100333D02*
X237512761Y-104052714D01*
X237560380Y-103909857D01*
X237560380Y-103814619D01*
X237512761Y-103671761D01*
X237417523Y-103576523D01*
X237322285Y-103528904D01*
X237131809Y-103481285D01*
X236988952Y-103481285D01*
X236798476Y-103528904D01*
X236703238Y-103576523D01*
X236608000Y-103671761D01*
X236560380Y-103814619D01*
X236560380Y-103909857D01*
X236608000Y-104052714D01*
X236655619Y-104100333D01*
X236560380Y-105005095D02*
X236560380Y-104528904D01*
X237036571Y-104481285D01*
X236988952Y-104528904D01*
X236941333Y-104624142D01*
X236941333Y-104862238D01*
X236988952Y-104957476D01*
X237036571Y-105005095D01*
X237131809Y-105052714D01*
X237369904Y-105052714D01*
X237465142Y-105005095D01*
X237512761Y-104957476D01*
X237560380Y-104862238D01*
X237560380Y-104624142D01*
X237512761Y-104528904D01*
X237465142Y-104481285D01*
X218288142Y-98194833D02*
X218335761Y-98147214D01*
X218383380Y-98004357D01*
X218383380Y-97909119D01*
X218335761Y-97766261D01*
X218240523Y-97671023D01*
X218145285Y-97623404D01*
X217954809Y-97575785D01*
X217811952Y-97575785D01*
X217621476Y-97623404D01*
X217526238Y-97671023D01*
X217431000Y-97766261D01*
X217383380Y-97909119D01*
X217383380Y-98004357D01*
X217431000Y-98147214D01*
X217478619Y-98194833D01*
X217716714Y-99051976D02*
X218383380Y-99051976D01*
X217335761Y-98813880D02*
X218050047Y-98575785D01*
X218050047Y-99194833D01*
X214796666Y-105133142D02*
X214844285Y-105180761D01*
X214987142Y-105228380D01*
X215082380Y-105228380D01*
X215225238Y-105180761D01*
X215320476Y-105085523D01*
X215368095Y-104990285D01*
X215415714Y-104799809D01*
X215415714Y-104656952D01*
X215368095Y-104466476D01*
X215320476Y-104371238D01*
X215225238Y-104276000D01*
X215082380Y-104228380D01*
X214987142Y-104228380D01*
X214844285Y-104276000D01*
X214796666Y-104323619D01*
X214463333Y-104228380D02*
X213844285Y-104228380D01*
X214177619Y-104609333D01*
X214034761Y-104609333D01*
X213939523Y-104656952D01*
X213891904Y-104704571D01*
X213844285Y-104799809D01*
X213844285Y-105037904D01*
X213891904Y-105133142D01*
X213939523Y-105180761D01*
X214034761Y-105228380D01*
X214320476Y-105228380D01*
X214415714Y-105180761D01*
X214463333Y-105133142D01*
X218290142Y-95210333D02*
X218337761Y-95162714D01*
X218385380Y-95019857D01*
X218385380Y-94924619D01*
X218337761Y-94781761D01*
X218242523Y-94686523D01*
X218147285Y-94638904D01*
X217956809Y-94591285D01*
X217813952Y-94591285D01*
X217623476Y-94638904D01*
X217528238Y-94686523D01*
X217433000Y-94781761D01*
X217385380Y-94924619D01*
X217385380Y-95019857D01*
X217433000Y-95162714D01*
X217480619Y-95210333D01*
X217480619Y-95591285D02*
X217433000Y-95638904D01*
X217385380Y-95734142D01*
X217385380Y-95972238D01*
X217433000Y-96067476D01*
X217480619Y-96115095D01*
X217575857Y-96162714D01*
X217671095Y-96162714D01*
X217813952Y-96115095D01*
X218385380Y-95543666D01*
X218385380Y-96162714D01*
X231496142Y-95083333D02*
X231543761Y-95035714D01*
X231591380Y-94892857D01*
X231591380Y-94797619D01*
X231543761Y-94654761D01*
X231448523Y-94559523D01*
X231353285Y-94511904D01*
X231162809Y-94464285D01*
X231019952Y-94464285D01*
X230829476Y-94511904D01*
X230734238Y-94559523D01*
X230639000Y-94654761D01*
X230591380Y-94797619D01*
X230591380Y-94892857D01*
X230639000Y-95035714D01*
X230686619Y-95083333D01*
X231591380Y-96035714D02*
X231591380Y-95464285D01*
X231591380Y-95750000D02*
X230591380Y-95750000D01*
X230734238Y-95654761D01*
X230829476Y-95559523D01*
X230877095Y-95464285D01*
%LPC*%
D12*
X225636000Y-94527000D03*
X223436000Y-94527000D03*
X223436000Y-96227000D03*
X225636000Y-96227000D03*
D13*
X199550000Y-88900000D03*
X206850000Y-88900000D03*
X206850000Y-93400000D03*
X199550000Y-93400000D03*
D14*
X201600000Y-93400000D03*
X202400000Y-93400000D03*
X203200000Y-93400000D03*
X204000000Y-93400000D03*
X204800000Y-93400000D03*
D15*
X221044000Y-112888000D03*
X221844000Y-112888000D03*
X222644000Y-112888000D03*
X223444000Y-112888000D03*
X224244000Y-112888000D03*
X225044000Y-112888000D03*
X225844000Y-112888000D03*
X226644000Y-112888000D03*
X227444000Y-112888000D03*
X228244000Y-112888000D03*
X229044000Y-112888000D03*
D16*
X230744000Y-111188000D03*
X230744000Y-110388000D03*
X230744000Y-109588000D03*
X230744000Y-108788000D03*
X230744000Y-107988000D03*
X230744000Y-107188000D03*
X230744000Y-106388000D03*
X230744000Y-105588000D03*
X230744000Y-104788000D03*
X230744000Y-103988000D03*
X230744000Y-103188000D03*
D15*
X229044000Y-101488000D03*
X228244000Y-101488000D03*
X227444000Y-101488000D03*
X226644000Y-101488000D03*
X225844000Y-101488000D03*
X225044000Y-101488000D03*
X224244000Y-101488000D03*
X223444000Y-101488000D03*
X222644000Y-101488000D03*
X221844000Y-101488000D03*
X221044000Y-101488000D03*
D16*
X219344000Y-103188000D03*
X219344000Y-103988000D03*
X219344000Y-104788000D03*
X219344000Y-105588000D03*
X219344000Y-106388000D03*
X219344000Y-107188000D03*
X219344000Y-107988000D03*
X219344000Y-108788000D03*
X219344000Y-109588000D03*
X219344000Y-110388000D03*
X219344000Y-111188000D03*
D17*
X198362500Y-122500000D03*
X192162500Y-118800000D03*
X198362500Y-118800000D03*
X192162500Y-122500000D03*
D18*
G36*
X235458141Y-110444047D02*
G01*
X235484278Y-110447924D01*
X235509909Y-110454344D01*
X235534788Y-110463245D01*
X235558674Y-110474543D01*
X235581337Y-110488127D01*
X235602560Y-110503867D01*
X235622139Y-110521611D01*
X235639883Y-110541190D01*
X235655623Y-110562413D01*
X235669207Y-110585076D01*
X235680505Y-110608962D01*
X235689406Y-110633841D01*
X235695826Y-110659472D01*
X235699703Y-110685609D01*
X235701000Y-110712000D01*
X235701000Y-111250500D01*
X235699703Y-111276891D01*
X235695826Y-111303028D01*
X235689406Y-111328659D01*
X235680505Y-111353538D01*
X235669207Y-111377424D01*
X235655623Y-111400087D01*
X235639883Y-111421310D01*
X235622139Y-111440889D01*
X235602560Y-111458633D01*
X235581337Y-111474373D01*
X235558674Y-111487957D01*
X235534788Y-111499255D01*
X235509909Y-111508156D01*
X235484278Y-111514576D01*
X235458141Y-111518453D01*
X235431750Y-111519750D01*
X234468250Y-111519750D01*
X234441859Y-111518453D01*
X234415722Y-111514576D01*
X234390091Y-111508156D01*
X234365212Y-111499255D01*
X234341326Y-111487957D01*
X234318663Y-111474373D01*
X234297440Y-111458633D01*
X234277861Y-111440889D01*
X234260117Y-111421310D01*
X234244377Y-111400087D01*
X234230793Y-111377424D01*
X234219495Y-111353538D01*
X234210594Y-111328659D01*
X234204174Y-111303028D01*
X234200297Y-111276891D01*
X234199000Y-111250500D01*
X234199000Y-110712000D01*
X234200297Y-110685609D01*
X234204174Y-110659472D01*
X234210594Y-110633841D01*
X234219495Y-110608962D01*
X234230793Y-110585076D01*
X234244377Y-110562413D01*
X234260117Y-110541190D01*
X234277861Y-110521611D01*
X234297440Y-110503867D01*
X234318663Y-110488127D01*
X234341326Y-110474543D01*
X234365212Y-110463245D01*
X234390091Y-110454344D01*
X234415722Y-110447924D01*
X234441859Y-110444047D01*
X234468250Y-110442750D01*
X235431750Y-110442750D01*
X235458141Y-110444047D01*
X235458141Y-110444047D01*
G37*
D19*
X234950000Y-110981250D03*
D18*
G36*
X235458141Y-112319047D02*
G01*
X235484278Y-112322924D01*
X235509909Y-112329344D01*
X235534788Y-112338245D01*
X235558674Y-112349543D01*
X235581337Y-112363127D01*
X235602560Y-112378867D01*
X235622139Y-112396611D01*
X235639883Y-112416190D01*
X235655623Y-112437413D01*
X235669207Y-112460076D01*
X235680505Y-112483962D01*
X235689406Y-112508841D01*
X235695826Y-112534472D01*
X235699703Y-112560609D01*
X235701000Y-112587000D01*
X235701000Y-113125500D01*
X235699703Y-113151891D01*
X235695826Y-113178028D01*
X235689406Y-113203659D01*
X235680505Y-113228538D01*
X235669207Y-113252424D01*
X235655623Y-113275087D01*
X235639883Y-113296310D01*
X235622139Y-113315889D01*
X235602560Y-113333633D01*
X235581337Y-113349373D01*
X235558674Y-113362957D01*
X235534788Y-113374255D01*
X235509909Y-113383156D01*
X235484278Y-113389576D01*
X235458141Y-113393453D01*
X235431750Y-113394750D01*
X234468250Y-113394750D01*
X234441859Y-113393453D01*
X234415722Y-113389576D01*
X234390091Y-113383156D01*
X234365212Y-113374255D01*
X234341326Y-113362957D01*
X234318663Y-113349373D01*
X234297440Y-113333633D01*
X234277861Y-113315889D01*
X234260117Y-113296310D01*
X234244377Y-113275087D01*
X234230793Y-113252424D01*
X234219495Y-113228538D01*
X234210594Y-113203659D01*
X234204174Y-113178028D01*
X234200297Y-113151891D01*
X234199000Y-113125500D01*
X234199000Y-112587000D01*
X234200297Y-112560609D01*
X234204174Y-112534472D01*
X234210594Y-112508841D01*
X234219495Y-112483962D01*
X234230793Y-112460076D01*
X234244377Y-112437413D01*
X234260117Y-112416190D01*
X234277861Y-112396611D01*
X234297440Y-112378867D01*
X234318663Y-112363127D01*
X234341326Y-112349543D01*
X234365212Y-112338245D01*
X234390091Y-112329344D01*
X234415722Y-112322924D01*
X234441859Y-112319047D01*
X234468250Y-112317750D01*
X235431750Y-112317750D01*
X235458141Y-112319047D01*
X235458141Y-112319047D01*
G37*
D19*
X234950000Y-112856250D03*
D18*
G36*
X201326891Y-97744047D02*
G01*
X201353028Y-97747924D01*
X201378659Y-97754344D01*
X201403538Y-97763245D01*
X201427424Y-97774543D01*
X201450087Y-97788127D01*
X201471310Y-97803867D01*
X201490889Y-97821611D01*
X201508633Y-97841190D01*
X201524373Y-97862413D01*
X201537957Y-97885076D01*
X201549255Y-97908962D01*
X201558156Y-97933841D01*
X201564576Y-97959472D01*
X201568453Y-97985609D01*
X201569750Y-98012000D01*
X201569750Y-98550500D01*
X201568453Y-98576891D01*
X201564576Y-98603028D01*
X201558156Y-98628659D01*
X201549255Y-98653538D01*
X201537957Y-98677424D01*
X201524373Y-98700087D01*
X201508633Y-98721310D01*
X201490889Y-98740889D01*
X201471310Y-98758633D01*
X201450087Y-98774373D01*
X201427424Y-98787957D01*
X201403538Y-98799255D01*
X201378659Y-98808156D01*
X201353028Y-98814576D01*
X201326891Y-98818453D01*
X201300500Y-98819750D01*
X200337000Y-98819750D01*
X200310609Y-98818453D01*
X200284472Y-98814576D01*
X200258841Y-98808156D01*
X200233962Y-98799255D01*
X200210076Y-98787957D01*
X200187413Y-98774373D01*
X200166190Y-98758633D01*
X200146611Y-98740889D01*
X200128867Y-98721310D01*
X200113127Y-98700087D01*
X200099543Y-98677424D01*
X200088245Y-98653538D01*
X200079344Y-98628659D01*
X200072924Y-98603028D01*
X200069047Y-98576891D01*
X200067750Y-98550500D01*
X200067750Y-98012000D01*
X200069047Y-97985609D01*
X200072924Y-97959472D01*
X200079344Y-97933841D01*
X200088245Y-97908962D01*
X200099543Y-97885076D01*
X200113127Y-97862413D01*
X200128867Y-97841190D01*
X200146611Y-97821611D01*
X200166190Y-97803867D01*
X200187413Y-97788127D01*
X200210076Y-97774543D01*
X200233962Y-97763245D01*
X200258841Y-97754344D01*
X200284472Y-97747924D01*
X200310609Y-97744047D01*
X200337000Y-97742750D01*
X201300500Y-97742750D01*
X201326891Y-97744047D01*
X201326891Y-97744047D01*
G37*
D19*
X200818750Y-98281250D03*
D18*
G36*
X201326891Y-99619047D02*
G01*
X201353028Y-99622924D01*
X201378659Y-99629344D01*
X201403538Y-99638245D01*
X201427424Y-99649543D01*
X201450087Y-99663127D01*
X201471310Y-99678867D01*
X201490889Y-99696611D01*
X201508633Y-99716190D01*
X201524373Y-99737413D01*
X201537957Y-99760076D01*
X201549255Y-99783962D01*
X201558156Y-99808841D01*
X201564576Y-99834472D01*
X201568453Y-99860609D01*
X201569750Y-99887000D01*
X201569750Y-100425500D01*
X201568453Y-100451891D01*
X201564576Y-100478028D01*
X201558156Y-100503659D01*
X201549255Y-100528538D01*
X201537957Y-100552424D01*
X201524373Y-100575087D01*
X201508633Y-100596310D01*
X201490889Y-100615889D01*
X201471310Y-100633633D01*
X201450087Y-100649373D01*
X201427424Y-100662957D01*
X201403538Y-100674255D01*
X201378659Y-100683156D01*
X201353028Y-100689576D01*
X201326891Y-100693453D01*
X201300500Y-100694750D01*
X200337000Y-100694750D01*
X200310609Y-100693453D01*
X200284472Y-100689576D01*
X200258841Y-100683156D01*
X200233962Y-100674255D01*
X200210076Y-100662957D01*
X200187413Y-100649373D01*
X200166190Y-100633633D01*
X200146611Y-100615889D01*
X200128867Y-100596310D01*
X200113127Y-100575087D01*
X200099543Y-100552424D01*
X200088245Y-100528538D01*
X200079344Y-100503659D01*
X200072924Y-100478028D01*
X200069047Y-100451891D01*
X200067750Y-100425500D01*
X200067750Y-99887000D01*
X200069047Y-99860609D01*
X200072924Y-99834472D01*
X200079344Y-99808841D01*
X200088245Y-99783962D01*
X200099543Y-99760076D01*
X200113127Y-99737413D01*
X200128867Y-99716190D01*
X200146611Y-99696611D01*
X200166190Y-99678867D01*
X200187413Y-99663127D01*
X200210076Y-99649543D01*
X200233962Y-99638245D01*
X200258841Y-99629344D01*
X200284472Y-99622924D01*
X200310609Y-99619047D01*
X200337000Y-99617750D01*
X201300500Y-99617750D01*
X201326891Y-99619047D01*
X201326891Y-99619047D01*
G37*
D19*
X200818750Y-100156250D03*
D18*
G36*
X204501891Y-97744047D02*
G01*
X204528028Y-97747924D01*
X204553659Y-97754344D01*
X204578538Y-97763245D01*
X204602424Y-97774543D01*
X204625087Y-97788127D01*
X204646310Y-97803867D01*
X204665889Y-97821611D01*
X204683633Y-97841190D01*
X204699373Y-97862413D01*
X204712957Y-97885076D01*
X204724255Y-97908962D01*
X204733156Y-97933841D01*
X204739576Y-97959472D01*
X204743453Y-97985609D01*
X204744750Y-98012000D01*
X204744750Y-98550500D01*
X204743453Y-98576891D01*
X204739576Y-98603028D01*
X204733156Y-98628659D01*
X204724255Y-98653538D01*
X204712957Y-98677424D01*
X204699373Y-98700087D01*
X204683633Y-98721310D01*
X204665889Y-98740889D01*
X204646310Y-98758633D01*
X204625087Y-98774373D01*
X204602424Y-98787957D01*
X204578538Y-98799255D01*
X204553659Y-98808156D01*
X204528028Y-98814576D01*
X204501891Y-98818453D01*
X204475500Y-98819750D01*
X203512000Y-98819750D01*
X203485609Y-98818453D01*
X203459472Y-98814576D01*
X203433841Y-98808156D01*
X203408962Y-98799255D01*
X203385076Y-98787957D01*
X203362413Y-98774373D01*
X203341190Y-98758633D01*
X203321611Y-98740889D01*
X203303867Y-98721310D01*
X203288127Y-98700087D01*
X203274543Y-98677424D01*
X203263245Y-98653538D01*
X203254344Y-98628659D01*
X203247924Y-98603028D01*
X203244047Y-98576891D01*
X203242750Y-98550500D01*
X203242750Y-98012000D01*
X203244047Y-97985609D01*
X203247924Y-97959472D01*
X203254344Y-97933841D01*
X203263245Y-97908962D01*
X203274543Y-97885076D01*
X203288127Y-97862413D01*
X203303867Y-97841190D01*
X203321611Y-97821611D01*
X203341190Y-97803867D01*
X203362413Y-97788127D01*
X203385076Y-97774543D01*
X203408962Y-97763245D01*
X203433841Y-97754344D01*
X203459472Y-97747924D01*
X203485609Y-97744047D01*
X203512000Y-97742750D01*
X204475500Y-97742750D01*
X204501891Y-97744047D01*
X204501891Y-97744047D01*
G37*
D19*
X203993750Y-98281250D03*
D18*
G36*
X204501891Y-99619047D02*
G01*
X204528028Y-99622924D01*
X204553659Y-99629344D01*
X204578538Y-99638245D01*
X204602424Y-99649543D01*
X204625087Y-99663127D01*
X204646310Y-99678867D01*
X204665889Y-99696611D01*
X204683633Y-99716190D01*
X204699373Y-99737413D01*
X204712957Y-99760076D01*
X204724255Y-99783962D01*
X204733156Y-99808841D01*
X204739576Y-99834472D01*
X204743453Y-99860609D01*
X204744750Y-99887000D01*
X204744750Y-100425500D01*
X204743453Y-100451891D01*
X204739576Y-100478028D01*
X204733156Y-100503659D01*
X204724255Y-100528538D01*
X204712957Y-100552424D01*
X204699373Y-100575087D01*
X204683633Y-100596310D01*
X204665889Y-100615889D01*
X204646310Y-100633633D01*
X204625087Y-100649373D01*
X204602424Y-100662957D01*
X204578538Y-100674255D01*
X204553659Y-100683156D01*
X204528028Y-100689576D01*
X204501891Y-100693453D01*
X204475500Y-100694750D01*
X203512000Y-100694750D01*
X203485609Y-100693453D01*
X203459472Y-100689576D01*
X203433841Y-100683156D01*
X203408962Y-100674255D01*
X203385076Y-100662957D01*
X203362413Y-100649373D01*
X203341190Y-100633633D01*
X203321611Y-100615889D01*
X203303867Y-100596310D01*
X203288127Y-100575087D01*
X203274543Y-100552424D01*
X203263245Y-100528538D01*
X203254344Y-100503659D01*
X203247924Y-100478028D01*
X203244047Y-100451891D01*
X203242750Y-100425500D01*
X203242750Y-99887000D01*
X203244047Y-99860609D01*
X203247924Y-99834472D01*
X203254344Y-99808841D01*
X203263245Y-99783962D01*
X203274543Y-99760076D01*
X203288127Y-99737413D01*
X203303867Y-99716190D01*
X203321611Y-99696611D01*
X203341190Y-99678867D01*
X203362413Y-99663127D01*
X203385076Y-99649543D01*
X203408962Y-99638245D01*
X203433841Y-99629344D01*
X203459472Y-99622924D01*
X203485609Y-99619047D01*
X203512000Y-99617750D01*
X204475500Y-99617750D01*
X204501891Y-99619047D01*
X204501891Y-99619047D01*
G37*
D19*
X203993750Y-100156250D03*
D18*
G36*
X213233141Y-98825297D02*
G01*
X213259278Y-98829174D01*
X213284909Y-98835594D01*
X213309788Y-98844495D01*
X213333674Y-98855793D01*
X213356337Y-98869377D01*
X213377560Y-98885117D01*
X213397139Y-98902861D01*
X213414883Y-98922440D01*
X213430623Y-98943663D01*
X213444207Y-98966326D01*
X213455505Y-98990212D01*
X213464406Y-99015091D01*
X213470826Y-99040722D01*
X213474703Y-99066859D01*
X213476000Y-99093250D01*
X213476000Y-99631750D01*
X213474703Y-99658141D01*
X213470826Y-99684278D01*
X213464406Y-99709909D01*
X213455505Y-99734788D01*
X213444207Y-99758674D01*
X213430623Y-99781337D01*
X213414883Y-99802560D01*
X213397139Y-99822139D01*
X213377560Y-99839883D01*
X213356337Y-99855623D01*
X213333674Y-99869207D01*
X213309788Y-99880505D01*
X213284909Y-99889406D01*
X213259278Y-99895826D01*
X213233141Y-99899703D01*
X213206750Y-99901000D01*
X212243250Y-99901000D01*
X212216859Y-99899703D01*
X212190722Y-99895826D01*
X212165091Y-99889406D01*
X212140212Y-99880505D01*
X212116326Y-99869207D01*
X212093663Y-99855623D01*
X212072440Y-99839883D01*
X212052861Y-99822139D01*
X212035117Y-99802560D01*
X212019377Y-99781337D01*
X212005793Y-99758674D01*
X211994495Y-99734788D01*
X211985594Y-99709909D01*
X211979174Y-99684278D01*
X211975297Y-99658141D01*
X211974000Y-99631750D01*
X211974000Y-99093250D01*
X211975297Y-99066859D01*
X211979174Y-99040722D01*
X211985594Y-99015091D01*
X211994495Y-98990212D01*
X212005793Y-98966326D01*
X212019377Y-98943663D01*
X212035117Y-98922440D01*
X212052861Y-98902861D01*
X212072440Y-98885117D01*
X212093663Y-98869377D01*
X212116326Y-98855793D01*
X212140212Y-98844495D01*
X212165091Y-98835594D01*
X212190722Y-98829174D01*
X212216859Y-98825297D01*
X212243250Y-98824000D01*
X213206750Y-98824000D01*
X213233141Y-98825297D01*
X213233141Y-98825297D01*
G37*
D19*
X212725000Y-99362500D03*
D18*
G36*
X213233141Y-96950297D02*
G01*
X213259278Y-96954174D01*
X213284909Y-96960594D01*
X213309788Y-96969495D01*
X213333674Y-96980793D01*
X213356337Y-96994377D01*
X213377560Y-97010117D01*
X213397139Y-97027861D01*
X213414883Y-97047440D01*
X213430623Y-97068663D01*
X213444207Y-97091326D01*
X213455505Y-97115212D01*
X213464406Y-97140091D01*
X213470826Y-97165722D01*
X213474703Y-97191859D01*
X213476000Y-97218250D01*
X213476000Y-97756750D01*
X213474703Y-97783141D01*
X213470826Y-97809278D01*
X213464406Y-97834909D01*
X213455505Y-97859788D01*
X213444207Y-97883674D01*
X213430623Y-97906337D01*
X213414883Y-97927560D01*
X213397139Y-97947139D01*
X213377560Y-97964883D01*
X213356337Y-97980623D01*
X213333674Y-97994207D01*
X213309788Y-98005505D01*
X213284909Y-98014406D01*
X213259278Y-98020826D01*
X213233141Y-98024703D01*
X213206750Y-98026000D01*
X212243250Y-98026000D01*
X212216859Y-98024703D01*
X212190722Y-98020826D01*
X212165091Y-98014406D01*
X212140212Y-98005505D01*
X212116326Y-97994207D01*
X212093663Y-97980623D01*
X212072440Y-97964883D01*
X212052861Y-97947139D01*
X212035117Y-97927560D01*
X212019377Y-97906337D01*
X212005793Y-97883674D01*
X211994495Y-97859788D01*
X211985594Y-97834909D01*
X211979174Y-97809278D01*
X211975297Y-97783141D01*
X211974000Y-97756750D01*
X211974000Y-97218250D01*
X211975297Y-97191859D01*
X211979174Y-97165722D01*
X211985594Y-97140091D01*
X211994495Y-97115212D01*
X212005793Y-97091326D01*
X212019377Y-97068663D01*
X212035117Y-97047440D01*
X212052861Y-97027861D01*
X212072440Y-97010117D01*
X212093663Y-96994377D01*
X212116326Y-96980793D01*
X212140212Y-96969495D01*
X212165091Y-96960594D01*
X212190722Y-96954174D01*
X212216859Y-96950297D01*
X212243250Y-96949000D01*
X213206750Y-96949000D01*
X213233141Y-96950297D01*
X213233141Y-96950297D01*
G37*
D19*
X212725000Y-97487500D03*
D20*
X271780000Y-115887500D03*
X261620000Y-115887500D03*
D21*
X264200000Y-111887500D03*
D22*
X266700000Y-115887500D03*
D21*
X263545001Y-112617500D03*
D23*
X262890000Y-113347500D02*
X264200002Y-111887500D01*
D21*
X269240000Y-110807500D03*
X269220000Y-111097500D03*
D23*
X269200000Y-111387500D02*
X269240000Y-110807500D01*
D20*
X252730000Y-115887500D03*
X242570000Y-115887500D03*
D21*
X245150000Y-111887500D03*
D22*
X247650000Y-115887500D03*
D21*
X244495001Y-112617500D03*
D23*
X243840000Y-113347500D02*
X245150002Y-111887500D01*
D21*
X250190000Y-110807500D03*
X250170000Y-111097500D03*
D23*
X250150000Y-111387500D02*
X250190000Y-110807500D01*
D20*
X271780000Y-96837500D03*
X261620000Y-96837500D03*
D21*
X264200000Y-92837500D03*
D22*
X266700000Y-96837500D03*
D21*
X263545001Y-93567500D03*
D23*
X262890000Y-94297500D02*
X264200002Y-92837500D01*
D21*
X269240000Y-91757500D03*
X269220000Y-92047500D03*
D23*
X269200000Y-92337500D02*
X269240000Y-91757500D01*
D20*
X252730000Y-96837500D03*
X242570000Y-96837500D03*
D21*
X245150000Y-92837500D03*
D22*
X247650000Y-96837500D03*
D21*
X244495001Y-93567500D03*
D23*
X243840000Y-94297500D02*
X245150002Y-92837500D01*
D21*
X250190000Y-91757500D03*
X250170000Y-92047500D03*
D23*
X250150000Y-92337500D02*
X250190000Y-91757500D01*
D18*
G36*
X198325854Y-103494052D02*
G01*
X198352102Y-103497946D01*
X198377843Y-103504393D01*
X198402828Y-103513333D01*
X198426816Y-103524678D01*
X198449576Y-103538321D01*
X198470890Y-103554128D01*
X198490552Y-103571948D01*
X198508372Y-103591610D01*
X198524179Y-103612924D01*
X198537822Y-103635684D01*
X198549167Y-103659672D01*
X198558107Y-103684657D01*
X198564554Y-103710398D01*
X198568448Y-103736646D01*
X198569750Y-103763150D01*
X198569750Y-104574350D01*
X198568448Y-104600854D01*
X198564554Y-104627102D01*
X198558107Y-104652843D01*
X198549167Y-104677828D01*
X198537822Y-104701816D01*
X198524179Y-104724576D01*
X198508372Y-104745890D01*
X198490552Y-104765552D01*
X198470890Y-104783372D01*
X198449576Y-104799179D01*
X198426816Y-104812822D01*
X198402828Y-104824167D01*
X198377843Y-104833107D01*
X198352102Y-104839554D01*
X198325854Y-104843448D01*
X198299350Y-104844750D01*
X196988150Y-104844750D01*
X196961646Y-104843448D01*
X196935398Y-104839554D01*
X196909657Y-104833107D01*
X196884672Y-104824167D01*
X196860684Y-104812822D01*
X196837924Y-104799179D01*
X196816610Y-104783372D01*
X196796948Y-104765552D01*
X196779128Y-104745890D01*
X196763321Y-104724576D01*
X196749678Y-104701816D01*
X196738333Y-104677828D01*
X196729393Y-104652843D01*
X196722946Y-104627102D01*
X196719052Y-104600854D01*
X196717750Y-104574350D01*
X196717750Y-103763150D01*
X196719052Y-103736646D01*
X196722946Y-103710398D01*
X196729393Y-103684657D01*
X196738333Y-103659672D01*
X196749678Y-103635684D01*
X196763321Y-103612924D01*
X196779128Y-103591610D01*
X196796948Y-103571948D01*
X196816610Y-103554128D01*
X196837924Y-103538321D01*
X196860684Y-103524678D01*
X196884672Y-103513333D01*
X196909657Y-103504393D01*
X196935398Y-103497946D01*
X196961646Y-103494052D01*
X196988150Y-103492750D01*
X198299350Y-103492750D01*
X198325854Y-103494052D01*
X198325854Y-103494052D01*
G37*
D24*
X197643750Y-104168750D03*
D18*
G36*
X198325854Y-106294052D02*
G01*
X198352102Y-106297946D01*
X198377843Y-106304393D01*
X198402828Y-106313333D01*
X198426816Y-106324678D01*
X198449576Y-106338321D01*
X198470890Y-106354128D01*
X198490552Y-106371948D01*
X198508372Y-106391610D01*
X198524179Y-106412924D01*
X198537822Y-106435684D01*
X198549167Y-106459672D01*
X198558107Y-106484657D01*
X198564554Y-106510398D01*
X198568448Y-106536646D01*
X198569750Y-106563150D01*
X198569750Y-107374350D01*
X198568448Y-107400854D01*
X198564554Y-107427102D01*
X198558107Y-107452843D01*
X198549167Y-107477828D01*
X198537822Y-107501816D01*
X198524179Y-107524576D01*
X198508372Y-107545890D01*
X198490552Y-107565552D01*
X198470890Y-107583372D01*
X198449576Y-107599179D01*
X198426816Y-107612822D01*
X198402828Y-107624167D01*
X198377843Y-107633107D01*
X198352102Y-107639554D01*
X198325854Y-107643448D01*
X198299350Y-107644750D01*
X196988150Y-107644750D01*
X196961646Y-107643448D01*
X196935398Y-107639554D01*
X196909657Y-107633107D01*
X196884672Y-107624167D01*
X196860684Y-107612822D01*
X196837924Y-107599179D01*
X196816610Y-107583372D01*
X196796948Y-107565552D01*
X196779128Y-107545890D01*
X196763321Y-107524576D01*
X196749678Y-107501816D01*
X196738333Y-107477828D01*
X196729393Y-107452843D01*
X196722946Y-107427102D01*
X196719052Y-107400854D01*
X196717750Y-107374350D01*
X196717750Y-106563150D01*
X196719052Y-106536646D01*
X196722946Y-106510398D01*
X196729393Y-106484657D01*
X196738333Y-106459672D01*
X196749678Y-106435684D01*
X196763321Y-106412924D01*
X196779128Y-106391610D01*
X196796948Y-106371948D01*
X196816610Y-106354128D01*
X196837924Y-106338321D01*
X196860684Y-106324678D01*
X196884672Y-106313333D01*
X196909657Y-106304393D01*
X196935398Y-106297946D01*
X196961646Y-106294052D01*
X196988150Y-106292750D01*
X198299350Y-106292750D01*
X198325854Y-106294052D01*
X198325854Y-106294052D01*
G37*
D24*
X197643750Y-106968750D03*
D25*
X274637500Y-113443750D03*
X274637500Y-116743750D03*
X255587500Y-114237500D03*
X255587500Y-117537500D03*
X274637500Y-95187500D03*
X274637500Y-98487500D03*
X255587500Y-95187500D03*
X255587500Y-98487500D03*
D18*
G36*
X214820641Y-113906547D02*
G01*
X214846778Y-113910424D01*
X214872409Y-113916844D01*
X214897288Y-113925745D01*
X214921174Y-113937043D01*
X214943837Y-113950627D01*
X214965060Y-113966367D01*
X214984639Y-113984111D01*
X215002383Y-114003690D01*
X215018123Y-114024913D01*
X215031707Y-114047576D01*
X215043005Y-114071462D01*
X215051906Y-114096341D01*
X215058326Y-114121972D01*
X215062203Y-114148109D01*
X215063500Y-114174500D01*
X215063500Y-114713000D01*
X215062203Y-114739391D01*
X215058326Y-114765528D01*
X215051906Y-114791159D01*
X215043005Y-114816038D01*
X215031707Y-114839924D01*
X215018123Y-114862587D01*
X215002383Y-114883810D01*
X214984639Y-114903389D01*
X214965060Y-114921133D01*
X214943837Y-114936873D01*
X214921174Y-114950457D01*
X214897288Y-114961755D01*
X214872409Y-114970656D01*
X214846778Y-114977076D01*
X214820641Y-114980953D01*
X214794250Y-114982250D01*
X213830750Y-114982250D01*
X213804359Y-114980953D01*
X213778222Y-114977076D01*
X213752591Y-114970656D01*
X213727712Y-114961755D01*
X213703826Y-114950457D01*
X213681163Y-114936873D01*
X213659940Y-114921133D01*
X213640361Y-114903389D01*
X213622617Y-114883810D01*
X213606877Y-114862587D01*
X213593293Y-114839924D01*
X213581995Y-114816038D01*
X213573094Y-114791159D01*
X213566674Y-114765528D01*
X213562797Y-114739391D01*
X213561500Y-114713000D01*
X213561500Y-114174500D01*
X213562797Y-114148109D01*
X213566674Y-114121972D01*
X213573094Y-114096341D01*
X213581995Y-114071462D01*
X213593293Y-114047576D01*
X213606877Y-114024913D01*
X213622617Y-114003690D01*
X213640361Y-113984111D01*
X213659940Y-113966367D01*
X213681163Y-113950627D01*
X213703826Y-113937043D01*
X213727712Y-113925745D01*
X213752591Y-113916844D01*
X213778222Y-113910424D01*
X213804359Y-113906547D01*
X213830750Y-113905250D01*
X214794250Y-113905250D01*
X214820641Y-113906547D01*
X214820641Y-113906547D01*
G37*
D19*
X214312500Y-114443750D03*
D18*
G36*
X214820641Y-112031547D02*
G01*
X214846778Y-112035424D01*
X214872409Y-112041844D01*
X214897288Y-112050745D01*
X214921174Y-112062043D01*
X214943837Y-112075627D01*
X214965060Y-112091367D01*
X214984639Y-112109111D01*
X215002383Y-112128690D01*
X215018123Y-112149913D01*
X215031707Y-112172576D01*
X215043005Y-112196462D01*
X215051906Y-112221341D01*
X215058326Y-112246972D01*
X215062203Y-112273109D01*
X215063500Y-112299500D01*
X215063500Y-112838000D01*
X215062203Y-112864391D01*
X215058326Y-112890528D01*
X215051906Y-112916159D01*
X215043005Y-112941038D01*
X215031707Y-112964924D01*
X215018123Y-112987587D01*
X215002383Y-113008810D01*
X214984639Y-113028389D01*
X214965060Y-113046133D01*
X214943837Y-113061873D01*
X214921174Y-113075457D01*
X214897288Y-113086755D01*
X214872409Y-113095656D01*
X214846778Y-113102076D01*
X214820641Y-113105953D01*
X214794250Y-113107250D01*
X213830750Y-113107250D01*
X213804359Y-113105953D01*
X213778222Y-113102076D01*
X213752591Y-113095656D01*
X213727712Y-113086755D01*
X213703826Y-113075457D01*
X213681163Y-113061873D01*
X213659940Y-113046133D01*
X213640361Y-113028389D01*
X213622617Y-113008810D01*
X213606877Y-112987587D01*
X213593293Y-112964924D01*
X213581995Y-112941038D01*
X213573094Y-112916159D01*
X213566674Y-112890528D01*
X213562797Y-112864391D01*
X213561500Y-112838000D01*
X213561500Y-112299500D01*
X213562797Y-112273109D01*
X213566674Y-112246972D01*
X213573094Y-112221341D01*
X213581995Y-112196462D01*
X213593293Y-112172576D01*
X213606877Y-112149913D01*
X213622617Y-112128690D01*
X213640361Y-112109111D01*
X213659940Y-112091367D01*
X213681163Y-112075627D01*
X213703826Y-112062043D01*
X213727712Y-112050745D01*
X213752591Y-112041844D01*
X213778222Y-112035424D01*
X213804359Y-112031547D01*
X213830750Y-112030250D01*
X214794250Y-112030250D01*
X214820641Y-112031547D01*
X214820641Y-112031547D01*
G37*
D19*
X214312500Y-112568750D03*
D18*
G36*
X227704141Y-116344297D02*
G01*
X227730278Y-116348174D01*
X227755909Y-116354594D01*
X227780788Y-116363495D01*
X227804674Y-116374793D01*
X227827337Y-116388377D01*
X227848560Y-116404117D01*
X227868139Y-116421861D01*
X227885883Y-116441440D01*
X227901623Y-116462663D01*
X227915207Y-116485326D01*
X227926505Y-116509212D01*
X227935406Y-116534091D01*
X227941826Y-116559722D01*
X227945703Y-116585859D01*
X227947000Y-116612250D01*
X227947000Y-117575750D01*
X227945703Y-117602141D01*
X227941826Y-117628278D01*
X227935406Y-117653909D01*
X227926505Y-117678788D01*
X227915207Y-117702674D01*
X227901623Y-117725337D01*
X227885883Y-117746560D01*
X227868139Y-117766139D01*
X227848560Y-117783883D01*
X227827337Y-117799623D01*
X227804674Y-117813207D01*
X227780788Y-117824505D01*
X227755909Y-117833406D01*
X227730278Y-117839826D01*
X227704141Y-117843703D01*
X227677750Y-117845000D01*
X227139250Y-117845000D01*
X227112859Y-117843703D01*
X227086722Y-117839826D01*
X227061091Y-117833406D01*
X227036212Y-117824505D01*
X227012326Y-117813207D01*
X226989663Y-117799623D01*
X226968440Y-117783883D01*
X226948861Y-117766139D01*
X226931117Y-117746560D01*
X226915377Y-117725337D01*
X226901793Y-117702674D01*
X226890495Y-117678788D01*
X226881594Y-117653909D01*
X226875174Y-117628278D01*
X226871297Y-117602141D01*
X226870000Y-117575750D01*
X226870000Y-116612250D01*
X226871297Y-116585859D01*
X226875174Y-116559722D01*
X226881594Y-116534091D01*
X226890495Y-116509212D01*
X226901793Y-116485326D01*
X226915377Y-116462663D01*
X226931117Y-116441440D01*
X226948861Y-116421861D01*
X226968440Y-116404117D01*
X226989663Y-116388377D01*
X227012326Y-116374793D01*
X227036212Y-116363495D01*
X227061091Y-116354594D01*
X227086722Y-116348174D01*
X227112859Y-116344297D01*
X227139250Y-116343000D01*
X227677750Y-116343000D01*
X227704141Y-116344297D01*
X227704141Y-116344297D01*
G37*
D19*
X227408500Y-117094000D03*
D18*
G36*
X229579141Y-116344297D02*
G01*
X229605278Y-116348174D01*
X229630909Y-116354594D01*
X229655788Y-116363495D01*
X229679674Y-116374793D01*
X229702337Y-116388377D01*
X229723560Y-116404117D01*
X229743139Y-116421861D01*
X229760883Y-116441440D01*
X229776623Y-116462663D01*
X229790207Y-116485326D01*
X229801505Y-116509212D01*
X229810406Y-116534091D01*
X229816826Y-116559722D01*
X229820703Y-116585859D01*
X229822000Y-116612250D01*
X229822000Y-117575750D01*
X229820703Y-117602141D01*
X229816826Y-117628278D01*
X229810406Y-117653909D01*
X229801505Y-117678788D01*
X229790207Y-117702674D01*
X229776623Y-117725337D01*
X229760883Y-117746560D01*
X229743139Y-117766139D01*
X229723560Y-117783883D01*
X229702337Y-117799623D01*
X229679674Y-117813207D01*
X229655788Y-117824505D01*
X229630909Y-117833406D01*
X229605278Y-117839826D01*
X229579141Y-117843703D01*
X229552750Y-117845000D01*
X229014250Y-117845000D01*
X228987859Y-117843703D01*
X228961722Y-117839826D01*
X228936091Y-117833406D01*
X228911212Y-117824505D01*
X228887326Y-117813207D01*
X228864663Y-117799623D01*
X228843440Y-117783883D01*
X228823861Y-117766139D01*
X228806117Y-117746560D01*
X228790377Y-117725337D01*
X228776793Y-117702674D01*
X228765495Y-117678788D01*
X228756594Y-117653909D01*
X228750174Y-117628278D01*
X228746297Y-117602141D01*
X228745000Y-117575750D01*
X228745000Y-116612250D01*
X228746297Y-116585859D01*
X228750174Y-116559722D01*
X228756594Y-116534091D01*
X228765495Y-116509212D01*
X228776793Y-116485326D01*
X228790377Y-116462663D01*
X228806117Y-116441440D01*
X228823861Y-116421861D01*
X228843440Y-116404117D01*
X228864663Y-116388377D01*
X228887326Y-116374793D01*
X228911212Y-116363495D01*
X228936091Y-116354594D01*
X228961722Y-116348174D01*
X228987859Y-116344297D01*
X229014250Y-116343000D01*
X229552750Y-116343000D01*
X229579141Y-116344297D01*
X229579141Y-116344297D01*
G37*
D19*
X229283500Y-117094000D03*
D18*
G36*
X235966141Y-102792297D02*
G01*
X235992278Y-102796174D01*
X236017909Y-102802594D01*
X236042788Y-102811495D01*
X236066674Y-102822793D01*
X236089337Y-102836377D01*
X236110560Y-102852117D01*
X236130139Y-102869861D01*
X236147883Y-102889440D01*
X236163623Y-102910663D01*
X236177207Y-102933326D01*
X236188505Y-102957212D01*
X236197406Y-102982091D01*
X236203826Y-103007722D01*
X236207703Y-103033859D01*
X236209000Y-103060250D01*
X236209000Y-103598750D01*
X236207703Y-103625141D01*
X236203826Y-103651278D01*
X236197406Y-103676909D01*
X236188505Y-103701788D01*
X236177207Y-103725674D01*
X236163623Y-103748337D01*
X236147883Y-103769560D01*
X236130139Y-103789139D01*
X236110560Y-103806883D01*
X236089337Y-103822623D01*
X236066674Y-103836207D01*
X236042788Y-103847505D01*
X236017909Y-103856406D01*
X235992278Y-103862826D01*
X235966141Y-103866703D01*
X235939750Y-103868000D01*
X234976250Y-103868000D01*
X234949859Y-103866703D01*
X234923722Y-103862826D01*
X234898091Y-103856406D01*
X234873212Y-103847505D01*
X234849326Y-103836207D01*
X234826663Y-103822623D01*
X234805440Y-103806883D01*
X234785861Y-103789139D01*
X234768117Y-103769560D01*
X234752377Y-103748337D01*
X234738793Y-103725674D01*
X234727495Y-103701788D01*
X234718594Y-103676909D01*
X234712174Y-103651278D01*
X234708297Y-103625141D01*
X234707000Y-103598750D01*
X234707000Y-103060250D01*
X234708297Y-103033859D01*
X234712174Y-103007722D01*
X234718594Y-102982091D01*
X234727495Y-102957212D01*
X234738793Y-102933326D01*
X234752377Y-102910663D01*
X234768117Y-102889440D01*
X234785861Y-102869861D01*
X234805440Y-102852117D01*
X234826663Y-102836377D01*
X234849326Y-102822793D01*
X234873212Y-102811495D01*
X234898091Y-102802594D01*
X234923722Y-102796174D01*
X234949859Y-102792297D01*
X234976250Y-102791000D01*
X235939750Y-102791000D01*
X235966141Y-102792297D01*
X235966141Y-102792297D01*
G37*
D19*
X235458000Y-103329500D03*
D18*
G36*
X235966141Y-104667297D02*
G01*
X235992278Y-104671174D01*
X236017909Y-104677594D01*
X236042788Y-104686495D01*
X236066674Y-104697793D01*
X236089337Y-104711377D01*
X236110560Y-104727117D01*
X236130139Y-104744861D01*
X236147883Y-104764440D01*
X236163623Y-104785663D01*
X236177207Y-104808326D01*
X236188505Y-104832212D01*
X236197406Y-104857091D01*
X236203826Y-104882722D01*
X236207703Y-104908859D01*
X236209000Y-104935250D01*
X236209000Y-105473750D01*
X236207703Y-105500141D01*
X236203826Y-105526278D01*
X236197406Y-105551909D01*
X236188505Y-105576788D01*
X236177207Y-105600674D01*
X236163623Y-105623337D01*
X236147883Y-105644560D01*
X236130139Y-105664139D01*
X236110560Y-105681883D01*
X236089337Y-105697623D01*
X236066674Y-105711207D01*
X236042788Y-105722505D01*
X236017909Y-105731406D01*
X235992278Y-105737826D01*
X235966141Y-105741703D01*
X235939750Y-105743000D01*
X234976250Y-105743000D01*
X234949859Y-105741703D01*
X234923722Y-105737826D01*
X234898091Y-105731406D01*
X234873212Y-105722505D01*
X234849326Y-105711207D01*
X234826663Y-105697623D01*
X234805440Y-105681883D01*
X234785861Y-105664139D01*
X234768117Y-105644560D01*
X234752377Y-105623337D01*
X234738793Y-105600674D01*
X234727495Y-105576788D01*
X234718594Y-105551909D01*
X234712174Y-105526278D01*
X234708297Y-105500141D01*
X234707000Y-105473750D01*
X234707000Y-104935250D01*
X234708297Y-104908859D01*
X234712174Y-104882722D01*
X234718594Y-104857091D01*
X234727495Y-104832212D01*
X234738793Y-104808326D01*
X234752377Y-104785663D01*
X234768117Y-104764440D01*
X234785861Y-104744861D01*
X234805440Y-104727117D01*
X234826663Y-104711377D01*
X234849326Y-104697793D01*
X234873212Y-104686495D01*
X234898091Y-104677594D01*
X234923722Y-104671174D01*
X234949859Y-104667297D01*
X234976250Y-104666000D01*
X235939750Y-104666000D01*
X235966141Y-104667297D01*
X235966141Y-104667297D01*
G37*
D19*
X235458000Y-105204500D03*
D18*
G36*
X216789141Y-96886797D02*
G01*
X216815278Y-96890674D01*
X216840909Y-96897094D01*
X216865788Y-96905995D01*
X216889674Y-96917293D01*
X216912337Y-96930877D01*
X216933560Y-96946617D01*
X216953139Y-96964361D01*
X216970883Y-96983940D01*
X216986623Y-97005163D01*
X217000207Y-97027826D01*
X217011505Y-97051712D01*
X217020406Y-97076591D01*
X217026826Y-97102222D01*
X217030703Y-97128359D01*
X217032000Y-97154750D01*
X217032000Y-97693250D01*
X217030703Y-97719641D01*
X217026826Y-97745778D01*
X217020406Y-97771409D01*
X217011505Y-97796288D01*
X217000207Y-97820174D01*
X216986623Y-97842837D01*
X216970883Y-97864060D01*
X216953139Y-97883639D01*
X216933560Y-97901383D01*
X216912337Y-97917123D01*
X216889674Y-97930707D01*
X216865788Y-97942005D01*
X216840909Y-97950906D01*
X216815278Y-97957326D01*
X216789141Y-97961203D01*
X216762750Y-97962500D01*
X215799250Y-97962500D01*
X215772859Y-97961203D01*
X215746722Y-97957326D01*
X215721091Y-97950906D01*
X215696212Y-97942005D01*
X215672326Y-97930707D01*
X215649663Y-97917123D01*
X215628440Y-97901383D01*
X215608861Y-97883639D01*
X215591117Y-97864060D01*
X215575377Y-97842837D01*
X215561793Y-97820174D01*
X215550495Y-97796288D01*
X215541594Y-97771409D01*
X215535174Y-97745778D01*
X215531297Y-97719641D01*
X215530000Y-97693250D01*
X215530000Y-97154750D01*
X215531297Y-97128359D01*
X215535174Y-97102222D01*
X215541594Y-97076591D01*
X215550495Y-97051712D01*
X215561793Y-97027826D01*
X215575377Y-97005163D01*
X215591117Y-96983940D01*
X215608861Y-96964361D01*
X215628440Y-96946617D01*
X215649663Y-96930877D01*
X215672326Y-96917293D01*
X215696212Y-96905995D01*
X215721091Y-96897094D01*
X215746722Y-96890674D01*
X215772859Y-96886797D01*
X215799250Y-96885500D01*
X216762750Y-96885500D01*
X216789141Y-96886797D01*
X216789141Y-96886797D01*
G37*
D19*
X216281000Y-97424000D03*
D18*
G36*
X216789141Y-98761797D02*
G01*
X216815278Y-98765674D01*
X216840909Y-98772094D01*
X216865788Y-98780995D01*
X216889674Y-98792293D01*
X216912337Y-98805877D01*
X216933560Y-98821617D01*
X216953139Y-98839361D01*
X216970883Y-98858940D01*
X216986623Y-98880163D01*
X217000207Y-98902826D01*
X217011505Y-98926712D01*
X217020406Y-98951591D01*
X217026826Y-98977222D01*
X217030703Y-99003359D01*
X217032000Y-99029750D01*
X217032000Y-99568250D01*
X217030703Y-99594641D01*
X217026826Y-99620778D01*
X217020406Y-99646409D01*
X217011505Y-99671288D01*
X217000207Y-99695174D01*
X216986623Y-99717837D01*
X216970883Y-99739060D01*
X216953139Y-99758639D01*
X216933560Y-99776383D01*
X216912337Y-99792123D01*
X216889674Y-99805707D01*
X216865788Y-99817005D01*
X216840909Y-99825906D01*
X216815278Y-99832326D01*
X216789141Y-99836203D01*
X216762750Y-99837500D01*
X215799250Y-99837500D01*
X215772859Y-99836203D01*
X215746722Y-99832326D01*
X215721091Y-99825906D01*
X215696212Y-99817005D01*
X215672326Y-99805707D01*
X215649663Y-99792123D01*
X215628440Y-99776383D01*
X215608861Y-99758639D01*
X215591117Y-99739060D01*
X215575377Y-99717837D01*
X215561793Y-99695174D01*
X215550495Y-99671288D01*
X215541594Y-99646409D01*
X215535174Y-99620778D01*
X215531297Y-99594641D01*
X215530000Y-99568250D01*
X215530000Y-99029750D01*
X215531297Y-99003359D01*
X215535174Y-98977222D01*
X215541594Y-98951591D01*
X215550495Y-98926712D01*
X215561793Y-98902826D01*
X215575377Y-98880163D01*
X215591117Y-98858940D01*
X215608861Y-98839361D01*
X215628440Y-98821617D01*
X215649663Y-98805877D01*
X215672326Y-98792293D01*
X215696212Y-98780995D01*
X215721091Y-98772094D01*
X215746722Y-98765674D01*
X215772859Y-98761797D01*
X215799250Y-98760500D01*
X216762750Y-98760500D01*
X216789141Y-98761797D01*
X216789141Y-98761797D01*
G37*
D19*
X216281000Y-99299000D03*
D18*
G36*
X213988141Y-105676297D02*
G01*
X214014278Y-105680174D01*
X214039909Y-105686594D01*
X214064788Y-105695495D01*
X214088674Y-105706793D01*
X214111337Y-105720377D01*
X214132560Y-105736117D01*
X214152139Y-105753861D01*
X214169883Y-105773440D01*
X214185623Y-105794663D01*
X214199207Y-105817326D01*
X214210505Y-105841212D01*
X214219406Y-105866091D01*
X214225826Y-105891722D01*
X214229703Y-105917859D01*
X214231000Y-105944250D01*
X214231000Y-106907750D01*
X214229703Y-106934141D01*
X214225826Y-106960278D01*
X214219406Y-106985909D01*
X214210505Y-107010788D01*
X214199207Y-107034674D01*
X214185623Y-107057337D01*
X214169883Y-107078560D01*
X214152139Y-107098139D01*
X214132560Y-107115883D01*
X214111337Y-107131623D01*
X214088674Y-107145207D01*
X214064788Y-107156505D01*
X214039909Y-107165406D01*
X214014278Y-107171826D01*
X213988141Y-107175703D01*
X213961750Y-107177000D01*
X213423250Y-107177000D01*
X213396859Y-107175703D01*
X213370722Y-107171826D01*
X213345091Y-107165406D01*
X213320212Y-107156505D01*
X213296326Y-107145207D01*
X213273663Y-107131623D01*
X213252440Y-107115883D01*
X213232861Y-107098139D01*
X213215117Y-107078560D01*
X213199377Y-107057337D01*
X213185793Y-107034674D01*
X213174495Y-107010788D01*
X213165594Y-106985909D01*
X213159174Y-106960278D01*
X213155297Y-106934141D01*
X213154000Y-106907750D01*
X213154000Y-105944250D01*
X213155297Y-105917859D01*
X213159174Y-105891722D01*
X213165594Y-105866091D01*
X213174495Y-105841212D01*
X213185793Y-105817326D01*
X213199377Y-105794663D01*
X213215117Y-105773440D01*
X213232861Y-105753861D01*
X213252440Y-105736117D01*
X213273663Y-105720377D01*
X213296326Y-105706793D01*
X213320212Y-105695495D01*
X213345091Y-105686594D01*
X213370722Y-105680174D01*
X213396859Y-105676297D01*
X213423250Y-105675000D01*
X213961750Y-105675000D01*
X213988141Y-105676297D01*
X213988141Y-105676297D01*
G37*
D19*
X213692500Y-106426000D03*
D18*
G36*
X215863141Y-105676297D02*
G01*
X215889278Y-105680174D01*
X215914909Y-105686594D01*
X215939788Y-105695495D01*
X215963674Y-105706793D01*
X215986337Y-105720377D01*
X216007560Y-105736117D01*
X216027139Y-105753861D01*
X216044883Y-105773440D01*
X216060623Y-105794663D01*
X216074207Y-105817326D01*
X216085505Y-105841212D01*
X216094406Y-105866091D01*
X216100826Y-105891722D01*
X216104703Y-105917859D01*
X216106000Y-105944250D01*
X216106000Y-106907750D01*
X216104703Y-106934141D01*
X216100826Y-106960278D01*
X216094406Y-106985909D01*
X216085505Y-107010788D01*
X216074207Y-107034674D01*
X216060623Y-107057337D01*
X216044883Y-107078560D01*
X216027139Y-107098139D01*
X216007560Y-107115883D01*
X215986337Y-107131623D01*
X215963674Y-107145207D01*
X215939788Y-107156505D01*
X215914909Y-107165406D01*
X215889278Y-107171826D01*
X215863141Y-107175703D01*
X215836750Y-107177000D01*
X215298250Y-107177000D01*
X215271859Y-107175703D01*
X215245722Y-107171826D01*
X215220091Y-107165406D01*
X215195212Y-107156505D01*
X215171326Y-107145207D01*
X215148663Y-107131623D01*
X215127440Y-107115883D01*
X215107861Y-107098139D01*
X215090117Y-107078560D01*
X215074377Y-107057337D01*
X215060793Y-107034674D01*
X215049495Y-107010788D01*
X215040594Y-106985909D01*
X215034174Y-106960278D01*
X215030297Y-106934141D01*
X215029000Y-106907750D01*
X215029000Y-105944250D01*
X215030297Y-105917859D01*
X215034174Y-105891722D01*
X215040594Y-105866091D01*
X215049495Y-105841212D01*
X215060793Y-105817326D01*
X215074377Y-105794663D01*
X215090117Y-105773440D01*
X215107861Y-105753861D01*
X215127440Y-105736117D01*
X215148663Y-105720377D01*
X215171326Y-105706793D01*
X215195212Y-105695495D01*
X215220091Y-105686594D01*
X215245722Y-105680174D01*
X215271859Y-105676297D01*
X215298250Y-105675000D01*
X215836750Y-105675000D01*
X215863141Y-105676297D01*
X215863141Y-105676297D01*
G37*
D19*
X215567500Y-106426000D03*
D18*
G36*
X220091141Y-95777297D02*
G01*
X220117278Y-95781174D01*
X220142909Y-95787594D01*
X220167788Y-95796495D01*
X220191674Y-95807793D01*
X220214337Y-95821377D01*
X220235560Y-95837117D01*
X220255139Y-95854861D01*
X220272883Y-95874440D01*
X220288623Y-95895663D01*
X220302207Y-95918326D01*
X220313505Y-95942212D01*
X220322406Y-95967091D01*
X220328826Y-95992722D01*
X220332703Y-96018859D01*
X220334000Y-96045250D01*
X220334000Y-96583750D01*
X220332703Y-96610141D01*
X220328826Y-96636278D01*
X220322406Y-96661909D01*
X220313505Y-96686788D01*
X220302207Y-96710674D01*
X220288623Y-96733337D01*
X220272883Y-96754560D01*
X220255139Y-96774139D01*
X220235560Y-96791883D01*
X220214337Y-96807623D01*
X220191674Y-96821207D01*
X220167788Y-96832505D01*
X220142909Y-96841406D01*
X220117278Y-96847826D01*
X220091141Y-96851703D01*
X220064750Y-96853000D01*
X219101250Y-96853000D01*
X219074859Y-96851703D01*
X219048722Y-96847826D01*
X219023091Y-96841406D01*
X218998212Y-96832505D01*
X218974326Y-96821207D01*
X218951663Y-96807623D01*
X218930440Y-96791883D01*
X218910861Y-96774139D01*
X218893117Y-96754560D01*
X218877377Y-96733337D01*
X218863793Y-96710674D01*
X218852495Y-96686788D01*
X218843594Y-96661909D01*
X218837174Y-96636278D01*
X218833297Y-96610141D01*
X218832000Y-96583750D01*
X218832000Y-96045250D01*
X218833297Y-96018859D01*
X218837174Y-95992722D01*
X218843594Y-95967091D01*
X218852495Y-95942212D01*
X218863793Y-95918326D01*
X218877377Y-95895663D01*
X218893117Y-95874440D01*
X218910861Y-95854861D01*
X218930440Y-95837117D01*
X218951663Y-95821377D01*
X218974326Y-95807793D01*
X218998212Y-95796495D01*
X219023091Y-95787594D01*
X219048722Y-95781174D01*
X219074859Y-95777297D01*
X219101250Y-95776000D01*
X220064750Y-95776000D01*
X220091141Y-95777297D01*
X220091141Y-95777297D01*
G37*
D19*
X219583000Y-96314500D03*
D18*
G36*
X220091141Y-93902297D02*
G01*
X220117278Y-93906174D01*
X220142909Y-93912594D01*
X220167788Y-93921495D01*
X220191674Y-93932793D01*
X220214337Y-93946377D01*
X220235560Y-93962117D01*
X220255139Y-93979861D01*
X220272883Y-93999440D01*
X220288623Y-94020663D01*
X220302207Y-94043326D01*
X220313505Y-94067212D01*
X220322406Y-94092091D01*
X220328826Y-94117722D01*
X220332703Y-94143859D01*
X220334000Y-94170250D01*
X220334000Y-94708750D01*
X220332703Y-94735141D01*
X220328826Y-94761278D01*
X220322406Y-94786909D01*
X220313505Y-94811788D01*
X220302207Y-94835674D01*
X220288623Y-94858337D01*
X220272883Y-94879560D01*
X220255139Y-94899139D01*
X220235560Y-94916883D01*
X220214337Y-94932623D01*
X220191674Y-94946207D01*
X220167788Y-94957505D01*
X220142909Y-94966406D01*
X220117278Y-94972826D01*
X220091141Y-94976703D01*
X220064750Y-94978000D01*
X219101250Y-94978000D01*
X219074859Y-94976703D01*
X219048722Y-94972826D01*
X219023091Y-94966406D01*
X218998212Y-94957505D01*
X218974326Y-94946207D01*
X218951663Y-94932623D01*
X218930440Y-94916883D01*
X218910861Y-94899139D01*
X218893117Y-94879560D01*
X218877377Y-94858337D01*
X218863793Y-94835674D01*
X218852495Y-94811788D01*
X218843594Y-94786909D01*
X218837174Y-94761278D01*
X218833297Y-94735141D01*
X218832000Y-94708750D01*
X218832000Y-94170250D01*
X218833297Y-94143859D01*
X218837174Y-94117722D01*
X218843594Y-94092091D01*
X218852495Y-94067212D01*
X218863793Y-94043326D01*
X218877377Y-94020663D01*
X218893117Y-93999440D01*
X218910861Y-93979861D01*
X218930440Y-93962117D01*
X218951663Y-93946377D01*
X218974326Y-93932793D01*
X218998212Y-93921495D01*
X219023091Y-93912594D01*
X219048722Y-93906174D01*
X219074859Y-93902297D01*
X219101250Y-93901000D01*
X220064750Y-93901000D01*
X220091141Y-93902297D01*
X220091141Y-93902297D01*
G37*
D19*
X219583000Y-94439500D03*
D18*
G36*
X229997141Y-93775297D02*
G01*
X230023278Y-93779174D01*
X230048909Y-93785594D01*
X230073788Y-93794495D01*
X230097674Y-93805793D01*
X230120337Y-93819377D01*
X230141560Y-93835117D01*
X230161139Y-93852861D01*
X230178883Y-93872440D01*
X230194623Y-93893663D01*
X230208207Y-93916326D01*
X230219505Y-93940212D01*
X230228406Y-93965091D01*
X230234826Y-93990722D01*
X230238703Y-94016859D01*
X230240000Y-94043250D01*
X230240000Y-94581750D01*
X230238703Y-94608141D01*
X230234826Y-94634278D01*
X230228406Y-94659909D01*
X230219505Y-94684788D01*
X230208207Y-94708674D01*
X230194623Y-94731337D01*
X230178883Y-94752560D01*
X230161139Y-94772139D01*
X230141560Y-94789883D01*
X230120337Y-94805623D01*
X230097674Y-94819207D01*
X230073788Y-94830505D01*
X230048909Y-94839406D01*
X230023278Y-94845826D01*
X229997141Y-94849703D01*
X229970750Y-94851000D01*
X229007250Y-94851000D01*
X228980859Y-94849703D01*
X228954722Y-94845826D01*
X228929091Y-94839406D01*
X228904212Y-94830505D01*
X228880326Y-94819207D01*
X228857663Y-94805623D01*
X228836440Y-94789883D01*
X228816861Y-94772139D01*
X228799117Y-94752560D01*
X228783377Y-94731337D01*
X228769793Y-94708674D01*
X228758495Y-94684788D01*
X228749594Y-94659909D01*
X228743174Y-94634278D01*
X228739297Y-94608141D01*
X228738000Y-94581750D01*
X228738000Y-94043250D01*
X228739297Y-94016859D01*
X228743174Y-93990722D01*
X228749594Y-93965091D01*
X228758495Y-93940212D01*
X228769793Y-93916326D01*
X228783377Y-93893663D01*
X228799117Y-93872440D01*
X228816861Y-93852861D01*
X228836440Y-93835117D01*
X228857663Y-93819377D01*
X228880326Y-93805793D01*
X228904212Y-93794495D01*
X228929091Y-93785594D01*
X228954722Y-93779174D01*
X228980859Y-93775297D01*
X229007250Y-93774000D01*
X229970750Y-93774000D01*
X229997141Y-93775297D01*
X229997141Y-93775297D01*
G37*
D19*
X229489000Y-94312500D03*
D18*
G36*
X229997141Y-95650297D02*
G01*
X230023278Y-95654174D01*
X230048909Y-95660594D01*
X230073788Y-95669495D01*
X230097674Y-95680793D01*
X230120337Y-95694377D01*
X230141560Y-95710117D01*
X230161139Y-95727861D01*
X230178883Y-95747440D01*
X230194623Y-95768663D01*
X230208207Y-95791326D01*
X230219505Y-95815212D01*
X230228406Y-95840091D01*
X230234826Y-95865722D01*
X230238703Y-95891859D01*
X230240000Y-95918250D01*
X230240000Y-96456750D01*
X230238703Y-96483141D01*
X230234826Y-96509278D01*
X230228406Y-96534909D01*
X230219505Y-96559788D01*
X230208207Y-96583674D01*
X230194623Y-96606337D01*
X230178883Y-96627560D01*
X230161139Y-96647139D01*
X230141560Y-96664883D01*
X230120337Y-96680623D01*
X230097674Y-96694207D01*
X230073788Y-96705505D01*
X230048909Y-96714406D01*
X230023278Y-96720826D01*
X229997141Y-96724703D01*
X229970750Y-96726000D01*
X229007250Y-96726000D01*
X228980859Y-96724703D01*
X228954722Y-96720826D01*
X228929091Y-96714406D01*
X228904212Y-96705505D01*
X228880326Y-96694207D01*
X228857663Y-96680623D01*
X228836440Y-96664883D01*
X228816861Y-96647139D01*
X228799117Y-96627560D01*
X228783377Y-96606337D01*
X228769793Y-96583674D01*
X228758495Y-96559788D01*
X228749594Y-96534909D01*
X228743174Y-96509278D01*
X228739297Y-96483141D01*
X228738000Y-96456750D01*
X228738000Y-95918250D01*
X228739297Y-95891859D01*
X228743174Y-95865722D01*
X228749594Y-95840091D01*
X228758495Y-95815212D01*
X228769793Y-95791326D01*
X228783377Y-95768663D01*
X228799117Y-95747440D01*
X228816861Y-95727861D01*
X228836440Y-95710117D01*
X228857663Y-95694377D01*
X228880326Y-95680793D01*
X228904212Y-95669495D01*
X228929091Y-95660594D01*
X228954722Y-95654174D01*
X228980859Y-95650297D01*
X229007250Y-95649000D01*
X229970750Y-95649000D01*
X229997141Y-95650297D01*
X229997141Y-95650297D01*
G37*
D19*
X229489000Y-96187500D03*
M02*
