G04 #@! TF.GenerationSoftware,KiCad,Pcbnew,(5.1.4)-1*
G04 #@! TF.CreationDate,2023-10-04T08:31:49-04:00*
G04 #@! TF.ProjectId,ai03-pcb-guide,61693033-2d70-4636-922d-67756964652e,rev?*
G04 #@! TF.SameCoordinates,Original*
G04 #@! TF.FileFunction,Copper,L1,Top*
G04 #@! TF.FilePolarity,Positive*
%FSLAX46Y46*%
G04 Gerber Fmt 4.6, Leading zero omitted, Abs format (unit mm)*
G04 Created by KiCad (PCBNEW (5.1.4)-1) date 2023-10-04 08:31:49*
%MOMM*%
%LPD*%
G04 APERTURE LIST*
%ADD10O,1.700000X2.700000*%
%ADD11C,2.250000*%
%ADD12C,2.250000*%
%ADD13C,0.800000*%
%ADD14C,0.381000*%
%ADD15C,0.254000*%
G04 APERTURE END LIST*
D10*
X199550000Y-88900000D03*
X206850000Y-88900000D03*
X206850000Y-93400000D03*
X199550000Y-93400000D03*
D11*
X264200000Y-111887500D03*
X263545001Y-112617500D03*
D12*
X262890000Y-113347500D02*
X264200002Y-111887500D01*
D11*
X269240000Y-110807500D03*
X269220000Y-111097500D03*
D12*
X269200000Y-111387500D02*
X269240000Y-110807500D01*
D11*
X245150000Y-111887500D03*
X244495001Y-112617500D03*
D12*
X243840000Y-113347500D02*
X245150002Y-111887500D01*
D11*
X250190000Y-110807500D03*
X250170000Y-111097500D03*
D12*
X250150000Y-111387500D02*
X250190000Y-110807500D01*
D11*
X264200000Y-92837500D03*
X263545001Y-93567500D03*
D12*
X262890000Y-94297500D02*
X264200002Y-92837500D01*
D11*
X269240000Y-91757500D03*
X269220000Y-92047500D03*
D12*
X269200000Y-92337500D02*
X269240000Y-91757500D01*
D11*
X245150000Y-92837500D03*
X244495001Y-93567500D03*
D12*
X243840000Y-94297500D02*
X245150002Y-92837500D01*
D11*
X250190000Y-91757500D03*
X250170000Y-92047500D03*
D12*
X250150000Y-92337500D02*
X250190000Y-91757500D01*
D13*
X216693750Y-110331250D03*
X217487500Y-105568750D03*
X230981250Y-117475000D03*
X229283500Y-117094000D03*
X237331250Y-105568750D03*
X214783243Y-97631250D03*
X211137500Y-99218750D03*
X200818750Y-119062500D03*
D14*
X216693750Y-106362500D02*
X216693750Y-110331250D01*
X217487500Y-105568750D02*
X216693750Y-106362500D01*
X216693750Y-110331250D02*
X223837500Y-117475000D01*
X223837500Y-117475000D02*
X230981250Y-117475000D01*
X237331250Y-113506250D02*
X237331250Y-105568750D01*
X230981250Y-117475000D02*
X232568750Y-116681250D01*
X232568750Y-116681250D02*
X237331250Y-113506250D01*
X215900000Y-98425000D02*
X217487500Y-105568750D01*
X214797475Y-96528725D02*
X215900000Y-98425000D01*
X214783243Y-97631250D02*
X214797475Y-96528725D01*
D15*
X243840000Y-110577500D02*
X245150000Y-111887500D01*
X243840000Y-94297500D02*
X243840000Y-110577500D01*
X262890000Y-110577500D02*
X264200000Y-111887500D01*
X262890000Y-94297500D02*
X262890000Y-110577500D01*
X211137500Y-99218750D02*
X211137500Y-117475000D01*
X211137500Y-117475000D02*
X209550000Y-119062500D01*
X209550000Y-119062500D02*
X200818750Y-119062500D01*
M02*
