G04 #@! TF.GenerationSoftware,KiCad,Pcbnew,(5.1.4)-1*
G04 #@! TF.CreationDate,2023-10-04T08:31:50-04:00*
G04 #@! TF.ProjectId,ai03-pcb-guide,61693033-2d70-4636-922d-67756964652e,rev?*
G04 #@! TF.SameCoordinates,Original*
G04 #@! TF.FileFunction,Soldermask,Bot*
G04 #@! TF.FilePolarity,Negative*
%FSLAX46Y46*%
G04 Gerber Fmt 4.6, Leading zero omitted, Abs format (unit mm)*
G04 Created by KiCad (PCBNEW (5.1.4)-1) date 2023-10-04 08:31:50*
%MOMM*%
%LPD*%
G04 APERTURE LIST*
%ADD10C,0.100000*%
G04 APERTURE END LIST*
D10*
G36*
X199313500Y-123101000D02*
G01*
X197411500Y-123101000D01*
X197411500Y-121899000D01*
X199313500Y-121899000D01*
X199313500Y-123101000D01*
X199313500Y-123101000D01*
G37*
G36*
X193113500Y-123101000D02*
G01*
X191211500Y-123101000D01*
X191211500Y-121899000D01*
X193113500Y-121899000D01*
X193113500Y-123101000D01*
X193113500Y-123101000D01*
G37*
G36*
X193113500Y-119401000D02*
G01*
X191211500Y-119401000D01*
X191211500Y-118199000D01*
X193113500Y-118199000D01*
X193113500Y-119401000D01*
X193113500Y-119401000D01*
G37*
G36*
X199313500Y-119401000D02*
G01*
X197411500Y-119401000D01*
X197411500Y-118199000D01*
X199313500Y-118199000D01*
X199313500Y-119401000D01*
X199313500Y-119401000D01*
G37*
G36*
X256238500Y-118038500D02*
G01*
X254936500Y-118038500D01*
X254936500Y-117036500D01*
X256238500Y-117036500D01*
X256238500Y-118038500D01*
X256238500Y-118038500D01*
G37*
G36*
X267296474Y-113921184D02*
G01*
X267514474Y-114011483D01*
X267668623Y-114075333D01*
X268003548Y-114299123D01*
X268288377Y-114583952D01*
X268512167Y-114918877D01*
X268544562Y-114997086D01*
X268666316Y-115291026D01*
X268744900Y-115686094D01*
X268744900Y-116088906D01*
X268666316Y-116483974D01*
X268615451Y-116606772D01*
X268512167Y-116856123D01*
X268288377Y-117191048D01*
X268003548Y-117475877D01*
X267668623Y-117699667D01*
X267540403Y-117752777D01*
X267296474Y-117853816D01*
X266901406Y-117932400D01*
X266498594Y-117932400D01*
X266103526Y-117853816D01*
X265859597Y-117752777D01*
X265731377Y-117699667D01*
X265396452Y-117475877D01*
X265111623Y-117191048D01*
X264887833Y-116856123D01*
X264784549Y-116606772D01*
X264733684Y-116483974D01*
X264655100Y-116088906D01*
X264655100Y-115686094D01*
X264733684Y-115291026D01*
X264855438Y-114997086D01*
X264887833Y-114918877D01*
X265111623Y-114583952D01*
X265396452Y-114299123D01*
X265731377Y-114075333D01*
X265885526Y-114011483D01*
X266103526Y-113921184D01*
X266498594Y-113842600D01*
X266901406Y-113842600D01*
X267296474Y-113921184D01*
X267296474Y-113921184D01*
G37*
G36*
X248246474Y-113921184D02*
G01*
X248464474Y-114011483D01*
X248618623Y-114075333D01*
X248953548Y-114299123D01*
X249238377Y-114583952D01*
X249462167Y-114918877D01*
X249494562Y-114997086D01*
X249616316Y-115291026D01*
X249694900Y-115686094D01*
X249694900Y-116088906D01*
X249616316Y-116483974D01*
X249565451Y-116606772D01*
X249462167Y-116856123D01*
X249238377Y-117191048D01*
X248953548Y-117475877D01*
X248618623Y-117699667D01*
X248490403Y-117752777D01*
X248246474Y-117853816D01*
X247851406Y-117932400D01*
X247448594Y-117932400D01*
X247053526Y-117853816D01*
X246809597Y-117752777D01*
X246681377Y-117699667D01*
X246346452Y-117475877D01*
X246061623Y-117191048D01*
X245837833Y-116856123D01*
X245734549Y-116606772D01*
X245683684Y-116483974D01*
X245605100Y-116088906D01*
X245605100Y-115686094D01*
X245683684Y-115291026D01*
X245805438Y-114997086D01*
X245837833Y-114918877D01*
X246061623Y-114583952D01*
X246346452Y-114299123D01*
X246681377Y-114075333D01*
X246835526Y-114011483D01*
X247053526Y-113921184D01*
X247448594Y-113842600D01*
X247851406Y-113842600D01*
X248246474Y-113921184D01*
X248246474Y-113921184D01*
G37*
G36*
X227780468Y-116347565D02*
G01*
X227819138Y-116359296D01*
X227854777Y-116378346D01*
X227886017Y-116403983D01*
X227911654Y-116435223D01*
X227930704Y-116470862D01*
X227942435Y-116509532D01*
X227947000Y-116555888D01*
X227947000Y-117632112D01*
X227942435Y-117678468D01*
X227930704Y-117717138D01*
X227911654Y-117752777D01*
X227886017Y-117784017D01*
X227854777Y-117809654D01*
X227819138Y-117828704D01*
X227780468Y-117840435D01*
X227734112Y-117845000D01*
X227082888Y-117845000D01*
X227036532Y-117840435D01*
X226997862Y-117828704D01*
X226962223Y-117809654D01*
X226930983Y-117784017D01*
X226905346Y-117752777D01*
X226886296Y-117717138D01*
X226874565Y-117678468D01*
X226870000Y-117632112D01*
X226870000Y-116555888D01*
X226874565Y-116509532D01*
X226886296Y-116470862D01*
X226905346Y-116435223D01*
X226930983Y-116403983D01*
X226962223Y-116378346D01*
X226997862Y-116359296D01*
X227036532Y-116347565D01*
X227082888Y-116343000D01*
X227734112Y-116343000D01*
X227780468Y-116347565D01*
X227780468Y-116347565D01*
G37*
G36*
X229655468Y-116347565D02*
G01*
X229694138Y-116359296D01*
X229729777Y-116378346D01*
X229761017Y-116403983D01*
X229786654Y-116435223D01*
X229805704Y-116470862D01*
X229817435Y-116509532D01*
X229822000Y-116555888D01*
X229822000Y-117632112D01*
X229817435Y-117678468D01*
X229805704Y-117717138D01*
X229786654Y-117752777D01*
X229761017Y-117784017D01*
X229729777Y-117809654D01*
X229694138Y-117828704D01*
X229655468Y-117840435D01*
X229609112Y-117845000D01*
X228957888Y-117845000D01*
X228911532Y-117840435D01*
X228872862Y-117828704D01*
X228837223Y-117809654D01*
X228805983Y-117784017D01*
X228780346Y-117752777D01*
X228761296Y-117717138D01*
X228749565Y-117678468D01*
X228745000Y-117632112D01*
X228745000Y-116555888D01*
X228749565Y-116509532D01*
X228761296Y-116470862D01*
X228780346Y-116435223D01*
X228805983Y-116403983D01*
X228837223Y-116378346D01*
X228872862Y-116359296D01*
X228911532Y-116347565D01*
X228957888Y-116343000D01*
X229609112Y-116343000D01*
X229655468Y-116347565D01*
X229655468Y-116347565D01*
G37*
G36*
X275288500Y-117244750D02*
G01*
X273986500Y-117244750D01*
X273986500Y-116242750D01*
X275288500Y-116242750D01*
X275288500Y-117244750D01*
X275288500Y-117244750D01*
G37*
G36*
X272050104Y-114997085D02*
G01*
X272218626Y-115066889D01*
X272370291Y-115168228D01*
X272499272Y-115297209D01*
X272600611Y-115448874D01*
X272670415Y-115617396D01*
X272706000Y-115796297D01*
X272706000Y-115978703D01*
X272670415Y-116157604D01*
X272600611Y-116326126D01*
X272499272Y-116477791D01*
X272370291Y-116606772D01*
X272218626Y-116708111D01*
X272050104Y-116777915D01*
X271871203Y-116813500D01*
X271688797Y-116813500D01*
X271509896Y-116777915D01*
X271341374Y-116708111D01*
X271189709Y-116606772D01*
X271060728Y-116477791D01*
X270959389Y-116326126D01*
X270889585Y-116157604D01*
X270854000Y-115978703D01*
X270854000Y-115796297D01*
X270889585Y-115617396D01*
X270959389Y-115448874D01*
X271060728Y-115297209D01*
X271189709Y-115168228D01*
X271341374Y-115066889D01*
X271509896Y-114997085D01*
X271688797Y-114961500D01*
X271871203Y-114961500D01*
X272050104Y-114997085D01*
X272050104Y-114997085D01*
G37*
G36*
X261890104Y-114997085D02*
G01*
X262058626Y-115066889D01*
X262210291Y-115168228D01*
X262339272Y-115297209D01*
X262440611Y-115448874D01*
X262510415Y-115617396D01*
X262546000Y-115796297D01*
X262546000Y-115978703D01*
X262510415Y-116157604D01*
X262440611Y-116326126D01*
X262339272Y-116477791D01*
X262210291Y-116606772D01*
X262058626Y-116708111D01*
X261890104Y-116777915D01*
X261711203Y-116813500D01*
X261528797Y-116813500D01*
X261349896Y-116777915D01*
X261181374Y-116708111D01*
X261029709Y-116606772D01*
X260900728Y-116477791D01*
X260799389Y-116326126D01*
X260729585Y-116157604D01*
X260694000Y-115978703D01*
X260694000Y-115796297D01*
X260729585Y-115617396D01*
X260799389Y-115448874D01*
X260900728Y-115297209D01*
X261029709Y-115168228D01*
X261181374Y-115066889D01*
X261349896Y-114997085D01*
X261528797Y-114961500D01*
X261711203Y-114961500D01*
X261890104Y-114997085D01*
X261890104Y-114997085D01*
G37*
G36*
X253000104Y-114997085D02*
G01*
X253168626Y-115066889D01*
X253320291Y-115168228D01*
X253449272Y-115297209D01*
X253550611Y-115448874D01*
X253620415Y-115617396D01*
X253656000Y-115796297D01*
X253656000Y-115978703D01*
X253620415Y-116157604D01*
X253550611Y-116326126D01*
X253449272Y-116477791D01*
X253320291Y-116606772D01*
X253168626Y-116708111D01*
X253000104Y-116777915D01*
X252821203Y-116813500D01*
X252638797Y-116813500D01*
X252459896Y-116777915D01*
X252291374Y-116708111D01*
X252139709Y-116606772D01*
X252010728Y-116477791D01*
X251909389Y-116326126D01*
X251839585Y-116157604D01*
X251804000Y-115978703D01*
X251804000Y-115796297D01*
X251839585Y-115617396D01*
X251909389Y-115448874D01*
X252010728Y-115297209D01*
X252139709Y-115168228D01*
X252291374Y-115066889D01*
X252459896Y-114997085D01*
X252638797Y-114961500D01*
X252821203Y-114961500D01*
X253000104Y-114997085D01*
X253000104Y-114997085D01*
G37*
G36*
X242840104Y-114997085D02*
G01*
X243008626Y-115066889D01*
X243160291Y-115168228D01*
X243289272Y-115297209D01*
X243390611Y-115448874D01*
X243460415Y-115617396D01*
X243496000Y-115796297D01*
X243496000Y-115978703D01*
X243460415Y-116157604D01*
X243390611Y-116326126D01*
X243289272Y-116477791D01*
X243160291Y-116606772D01*
X243008626Y-116708111D01*
X242840104Y-116777915D01*
X242661203Y-116813500D01*
X242478797Y-116813500D01*
X242299896Y-116777915D01*
X242131374Y-116708111D01*
X241979709Y-116606772D01*
X241850728Y-116477791D01*
X241749389Y-116326126D01*
X241679585Y-116157604D01*
X241644000Y-115978703D01*
X241644000Y-115796297D01*
X241679585Y-115617396D01*
X241749389Y-115448874D01*
X241850728Y-115297209D01*
X241979709Y-115168228D01*
X242131374Y-115066889D01*
X242299896Y-114997085D01*
X242478797Y-114961500D01*
X242661203Y-114961500D01*
X242840104Y-114997085D01*
X242840104Y-114997085D01*
G37*
G36*
X214896968Y-113909815D02*
G01*
X214935638Y-113921546D01*
X214971277Y-113940596D01*
X215002517Y-113966233D01*
X215028154Y-113997473D01*
X215047204Y-114033112D01*
X215058935Y-114071782D01*
X215063500Y-114118138D01*
X215063500Y-114769362D01*
X215058935Y-114815718D01*
X215047204Y-114854388D01*
X215028154Y-114890027D01*
X215002517Y-114921267D01*
X214971277Y-114946904D01*
X214935638Y-114965954D01*
X214896968Y-114977685D01*
X214850612Y-114982250D01*
X213774388Y-114982250D01*
X213728032Y-114977685D01*
X213689362Y-114965954D01*
X213653723Y-114946904D01*
X213622483Y-114921267D01*
X213596846Y-114890027D01*
X213577796Y-114854388D01*
X213566065Y-114815718D01*
X213561500Y-114769362D01*
X213561500Y-114118138D01*
X213566065Y-114071782D01*
X213577796Y-114033112D01*
X213596846Y-113997473D01*
X213622483Y-113966233D01*
X213653723Y-113940596D01*
X213689362Y-113921546D01*
X213728032Y-113909815D01*
X213774388Y-113905250D01*
X214850612Y-113905250D01*
X214896968Y-113909815D01*
X214896968Y-113909815D01*
G37*
G36*
X256238500Y-114738500D02*
G01*
X254936500Y-114738500D01*
X254936500Y-113736500D01*
X256238500Y-113736500D01*
X256238500Y-114738500D01*
X256238500Y-114738500D01*
G37*
G36*
X264223205Y-110711381D02*
G01*
X264228645Y-110711500D01*
X264315828Y-110711500D01*
X264332097Y-110714736D01*
X264350956Y-110717015D01*
X264367532Y-110717746D01*
X264452223Y-110738510D01*
X264457518Y-110739684D01*
X264543027Y-110756693D01*
X264558362Y-110763045D01*
X264576401Y-110768955D01*
X264592521Y-110772907D01*
X264671504Y-110809780D01*
X264676494Y-110811977D01*
X264757045Y-110845342D01*
X264770841Y-110854560D01*
X264787393Y-110863882D01*
X264802426Y-110870900D01*
X264872694Y-110922471D01*
X264877192Y-110925622D01*
X264949656Y-110974041D01*
X264961383Y-110985768D01*
X264975809Y-110998148D01*
X264989179Y-111007961D01*
X264989180Y-111007962D01*
X265048021Y-111072233D01*
X265051829Y-111076214D01*
X265113459Y-111137844D01*
X265122674Y-111151635D01*
X265134396Y-111166578D01*
X265145605Y-111178821D01*
X265190799Y-111253374D01*
X265193746Y-111258001D01*
X265242158Y-111330455D01*
X265248505Y-111345777D01*
X265257092Y-111362731D01*
X265265691Y-111376917D01*
X265295478Y-111458868D01*
X265297452Y-111463948D01*
X265330807Y-111544473D01*
X265330807Y-111544474D01*
X265334041Y-111560733D01*
X265339158Y-111579042D01*
X265344825Y-111594634D01*
X265358055Y-111680845D01*
X265359001Y-111686213D01*
X265376000Y-111771673D01*
X265376000Y-111788252D01*
X265377444Y-111807192D01*
X265379963Y-111823604D01*
X265376120Y-111910749D01*
X265376000Y-111916189D01*
X265376000Y-112003325D01*
X265372766Y-112019583D01*
X265370488Y-112038441D01*
X265369756Y-112055031D01*
X265348988Y-112139737D01*
X265347812Y-112145037D01*
X265330807Y-112230527D01*
X265324457Y-112245857D01*
X265318549Y-112263893D01*
X265314595Y-112280020D01*
X265277711Y-112359026D01*
X265275511Y-112364023D01*
X265242158Y-112444545D01*
X265232944Y-112458335D01*
X265223622Y-112474887D01*
X265216602Y-112489924D01*
X265165011Y-112560220D01*
X265161866Y-112564710D01*
X265113461Y-112637154D01*
X265056460Y-112694155D01*
X265051811Y-112699063D01*
X264482315Y-113333767D01*
X263726723Y-114175876D01*
X263598679Y-114293102D01*
X263499631Y-114353145D01*
X263400583Y-114413189D01*
X263182866Y-114492323D01*
X262953895Y-114527461D01*
X262722470Y-114517254D01*
X262497481Y-114462093D01*
X262392727Y-114413189D01*
X262287579Y-114364102D01*
X262190838Y-114293102D01*
X262100823Y-114227039D01*
X262001123Y-114118138D01*
X261944398Y-114056179D01*
X261874331Y-113940596D01*
X261824311Y-113858083D01*
X261745177Y-113640366D01*
X261710039Y-113411395D01*
X261720246Y-113179970D01*
X261775407Y-112954981D01*
X261830019Y-112838000D01*
X261873398Y-112745080D01*
X261873400Y-112745077D01*
X261976114Y-112605122D01*
X262731245Y-111763527D01*
X263262787Y-111171121D01*
X263273681Y-111157089D01*
X263286539Y-111137846D01*
X263343573Y-111080812D01*
X263348223Y-111075903D01*
X263363278Y-111059124D01*
X263384701Y-111039511D01*
X263388682Y-111035703D01*
X263450346Y-110974039D01*
X263464143Y-110964820D01*
X263479102Y-110953085D01*
X263491321Y-110941898D01*
X263523385Y-110922461D01*
X263565830Y-110896731D01*
X263570421Y-110893808D01*
X263642955Y-110845342D01*
X263658300Y-110838986D01*
X263675248Y-110830401D01*
X263689416Y-110821812D01*
X263689417Y-110821812D01*
X263689418Y-110821811D01*
X263771312Y-110792045D01*
X263776410Y-110790063D01*
X263856973Y-110756693D01*
X263873252Y-110753455D01*
X263891542Y-110748344D01*
X263907135Y-110742677D01*
X263993300Y-110729454D01*
X263998663Y-110728509D01*
X264084173Y-110711500D01*
X264100766Y-110711500D01*
X264119709Y-110710055D01*
X264136106Y-110707539D01*
X264223205Y-110711381D01*
X264223205Y-110711381D01*
G37*
G36*
X245173205Y-110711381D02*
G01*
X245178645Y-110711500D01*
X245265828Y-110711500D01*
X245282097Y-110714736D01*
X245300956Y-110717015D01*
X245317532Y-110717746D01*
X245402223Y-110738510D01*
X245407518Y-110739684D01*
X245493027Y-110756693D01*
X245508362Y-110763045D01*
X245526401Y-110768955D01*
X245542521Y-110772907D01*
X245621504Y-110809780D01*
X245626494Y-110811977D01*
X245707045Y-110845342D01*
X245720841Y-110854560D01*
X245737393Y-110863882D01*
X245752426Y-110870900D01*
X245822694Y-110922471D01*
X245827192Y-110925622D01*
X245899656Y-110974041D01*
X245911383Y-110985768D01*
X245925809Y-110998148D01*
X245939179Y-111007961D01*
X245939180Y-111007962D01*
X245998021Y-111072233D01*
X246001829Y-111076214D01*
X246063459Y-111137844D01*
X246072674Y-111151635D01*
X246084396Y-111166578D01*
X246095605Y-111178821D01*
X246140799Y-111253374D01*
X246143746Y-111258001D01*
X246192158Y-111330455D01*
X246198505Y-111345777D01*
X246207092Y-111362731D01*
X246215691Y-111376917D01*
X246245478Y-111458868D01*
X246247452Y-111463948D01*
X246280807Y-111544473D01*
X246280807Y-111544474D01*
X246284041Y-111560733D01*
X246289158Y-111579042D01*
X246294825Y-111594634D01*
X246308055Y-111680845D01*
X246309001Y-111686213D01*
X246326000Y-111771673D01*
X246326000Y-111788252D01*
X246327444Y-111807192D01*
X246329963Y-111823604D01*
X246326120Y-111910749D01*
X246326000Y-111916189D01*
X246326000Y-112003325D01*
X246322766Y-112019583D01*
X246320488Y-112038441D01*
X246319756Y-112055031D01*
X246298988Y-112139737D01*
X246297812Y-112145037D01*
X246280807Y-112230527D01*
X246274457Y-112245857D01*
X246268549Y-112263893D01*
X246264595Y-112280020D01*
X246227711Y-112359026D01*
X246225511Y-112364023D01*
X246192158Y-112444545D01*
X246182944Y-112458335D01*
X246173622Y-112474887D01*
X246166602Y-112489924D01*
X246115011Y-112560220D01*
X246111866Y-112564710D01*
X246063461Y-112637154D01*
X246006460Y-112694155D01*
X246001811Y-112699063D01*
X245432315Y-113333767D01*
X244676723Y-114175876D01*
X244548679Y-114293102D01*
X244449631Y-114353145D01*
X244350583Y-114413189D01*
X244132866Y-114492323D01*
X243903895Y-114527461D01*
X243672470Y-114517254D01*
X243447481Y-114462093D01*
X243342727Y-114413189D01*
X243237579Y-114364102D01*
X243140838Y-114293102D01*
X243050823Y-114227039D01*
X242951123Y-114118138D01*
X242894398Y-114056179D01*
X242824331Y-113940596D01*
X242774311Y-113858083D01*
X242695177Y-113640366D01*
X242660039Y-113411395D01*
X242670246Y-113179970D01*
X242725407Y-112954981D01*
X242780019Y-112838000D01*
X242823398Y-112745080D01*
X242823400Y-112745077D01*
X242926114Y-112605122D01*
X243681245Y-111763527D01*
X244212787Y-111171121D01*
X244223681Y-111157089D01*
X244236539Y-111137846D01*
X244293573Y-111080812D01*
X244298223Y-111075903D01*
X244313278Y-111059124D01*
X244334701Y-111039511D01*
X244338682Y-111035703D01*
X244400346Y-110974039D01*
X244414143Y-110964820D01*
X244429102Y-110953085D01*
X244441321Y-110941898D01*
X244473385Y-110922461D01*
X244515830Y-110896731D01*
X244520421Y-110893808D01*
X244592955Y-110845342D01*
X244608300Y-110838986D01*
X244625248Y-110830401D01*
X244639416Y-110821812D01*
X244639417Y-110821812D01*
X244639418Y-110821811D01*
X244721312Y-110792045D01*
X244726410Y-110790063D01*
X244806973Y-110756693D01*
X244823252Y-110753455D01*
X244841542Y-110748344D01*
X244857135Y-110742677D01*
X244943300Y-110729454D01*
X244948663Y-110728509D01*
X245034173Y-110711500D01*
X245050766Y-110711500D01*
X245069709Y-110710055D01*
X245086106Y-110707539D01*
X245173205Y-110711381D01*
X245173205Y-110711381D01*
G37*
G36*
X275288500Y-113944750D02*
G01*
X273986500Y-113944750D01*
X273986500Y-112942750D01*
X275288500Y-112942750D01*
X275288500Y-113944750D01*
X275288500Y-113944750D01*
G37*
G36*
X229370000Y-113689000D02*
G01*
X220718000Y-113689000D01*
X220718000Y-112087000D01*
X229370000Y-112087000D01*
X229370000Y-113689000D01*
X229370000Y-113689000D01*
G37*
G36*
X235534468Y-112322315D02*
G01*
X235573138Y-112334046D01*
X235608777Y-112353096D01*
X235640017Y-112378733D01*
X235665654Y-112409973D01*
X235684704Y-112445612D01*
X235696435Y-112484282D01*
X235701000Y-112530638D01*
X235701000Y-113181862D01*
X235696435Y-113228218D01*
X235684704Y-113266888D01*
X235665654Y-113302527D01*
X235640017Y-113333767D01*
X235608777Y-113359404D01*
X235573138Y-113378454D01*
X235534468Y-113390185D01*
X235488112Y-113394750D01*
X234411888Y-113394750D01*
X234365532Y-113390185D01*
X234326862Y-113378454D01*
X234291223Y-113359404D01*
X234259983Y-113333767D01*
X234234346Y-113302527D01*
X234215296Y-113266888D01*
X234203565Y-113228218D01*
X234199000Y-113181862D01*
X234199000Y-112530638D01*
X234203565Y-112484282D01*
X234215296Y-112445612D01*
X234234346Y-112409973D01*
X234259983Y-112378733D01*
X234291223Y-112353096D01*
X234326862Y-112334046D01*
X234365532Y-112322315D01*
X234411888Y-112317750D01*
X235488112Y-112317750D01*
X235534468Y-112322315D01*
X235534468Y-112322315D01*
G37*
G36*
X214896968Y-112034815D02*
G01*
X214935638Y-112046546D01*
X214971277Y-112065596D01*
X215002517Y-112091233D01*
X215028154Y-112122473D01*
X215047204Y-112158112D01*
X215058935Y-112196782D01*
X215063500Y-112243138D01*
X215063500Y-112894362D01*
X215058935Y-112940718D01*
X215047204Y-112979388D01*
X215028154Y-113015027D01*
X215002517Y-113046267D01*
X214971277Y-113071904D01*
X214935638Y-113090954D01*
X214896968Y-113102685D01*
X214850612Y-113107250D01*
X213774388Y-113107250D01*
X213728032Y-113102685D01*
X213689362Y-113090954D01*
X213653723Y-113071904D01*
X213622483Y-113046267D01*
X213596846Y-113015027D01*
X213577796Y-112979388D01*
X213566065Y-112940718D01*
X213561500Y-112894362D01*
X213561500Y-112243138D01*
X213566065Y-112196782D01*
X213577796Y-112158112D01*
X213596846Y-112122473D01*
X213622483Y-112091233D01*
X213653723Y-112065596D01*
X213689362Y-112046546D01*
X213728032Y-112034815D01*
X213774388Y-112030250D01*
X214850612Y-112030250D01*
X214896968Y-112034815D01*
X214896968Y-112034815D01*
G37*
G36*
X269328127Y-109629761D02*
G01*
X269348900Y-109631500D01*
X269355827Y-109631500D01*
X269450754Y-109650382D01*
X269454348Y-109651042D01*
X269549730Y-109667124D01*
X269556203Y-109669585D01*
X269576228Y-109675341D01*
X269583027Y-109676693D01*
X269645414Y-109702534D01*
X269672443Y-109713730D01*
X269675844Y-109715081D01*
X269766255Y-109749461D01*
X269772127Y-109753140D01*
X269790636Y-109762687D01*
X269797045Y-109765342D01*
X269877563Y-109819142D01*
X269880554Y-109821078D01*
X269962557Y-109872459D01*
X269967584Y-109877200D01*
X269983896Y-109890191D01*
X269989652Y-109894037D01*
X270058110Y-109962495D01*
X270060689Y-109964999D01*
X270131090Y-110031389D01*
X270135095Y-110037019D01*
X270148559Y-110052944D01*
X270153459Y-110057844D01*
X270207244Y-110138339D01*
X270209291Y-110141307D01*
X270265380Y-110220145D01*
X270268214Y-110226458D01*
X270278308Y-110244693D01*
X270282158Y-110250455D01*
X270319220Y-110339930D01*
X270320624Y-110343185D01*
X270360265Y-110431473D01*
X270361815Y-110438225D01*
X270368152Y-110458062D01*
X270370807Y-110464473D01*
X270378616Y-110503733D01*
X270389692Y-110559417D01*
X270390438Y-110562901D01*
X270412098Y-110657251D01*
X270412098Y-110657254D01*
X270412300Y-110664154D01*
X270414647Y-110684870D01*
X270416000Y-110691674D01*
X270416000Y-110788486D01*
X270416053Y-110792084D01*
X270417188Y-110830777D01*
X270416295Y-110843725D01*
X270416000Y-110852297D01*
X270416000Y-110923326D01*
X270410081Y-110953085D01*
X270409604Y-110955479D01*
X270407500Y-110971250D01*
X270369238Y-111526045D01*
X270340376Y-111697230D01*
X270258038Y-111913755D01*
X270135041Y-112110057D01*
X269976111Y-112278590D01*
X269787355Y-112412880D01*
X269576027Y-112507765D01*
X269350249Y-112559598D01*
X269118698Y-112566389D01*
X269118697Y-112566389D01*
X269073012Y-112558686D01*
X268890270Y-112527876D01*
X268673745Y-112445538D01*
X268477443Y-112322541D01*
X268308910Y-112163611D01*
X268174620Y-111974855D01*
X268079735Y-111763527D01*
X268027902Y-111537749D01*
X268022812Y-111364223D01*
X268063704Y-110771294D01*
X268064000Y-110762696D01*
X268064000Y-110691675D01*
X268069474Y-110664154D01*
X268082888Y-110596719D01*
X268083544Y-110593145D01*
X268089231Y-110559417D01*
X268099624Y-110497770D01*
X268102085Y-110491299D01*
X268107842Y-110471267D01*
X268109193Y-110464474D01*
X268116048Y-110447924D01*
X268146264Y-110374976D01*
X268147553Y-110371730D01*
X268181962Y-110281245D01*
X268185636Y-110275381D01*
X268195187Y-110256865D01*
X268197842Y-110250455D01*
X268251657Y-110169915D01*
X268253577Y-110166949D01*
X268304959Y-110084943D01*
X268309711Y-110079904D01*
X268322689Y-110063607D01*
X268326537Y-110057848D01*
X268394993Y-109989392D01*
X268397546Y-109986762D01*
X268418023Y-109965048D01*
X268463889Y-109916410D01*
X268469521Y-109912403D01*
X268485447Y-109898938D01*
X268490346Y-109894039D01*
X268570824Y-109840266D01*
X268573806Y-109838210D01*
X268652645Y-109782120D01*
X268658955Y-109779287D01*
X268677194Y-109769191D01*
X268682951Y-109765344D01*
X268682954Y-109765343D01*
X268682955Y-109765342D01*
X268772429Y-109728281D01*
X268775687Y-109726875D01*
X268863973Y-109687235D01*
X268870725Y-109685685D01*
X268890562Y-109679348D01*
X268896973Y-109676693D01*
X268991899Y-109657811D01*
X268995446Y-109657051D01*
X269089751Y-109635401D01*
X269092130Y-109635331D01*
X269096665Y-109635198D01*
X269117381Y-109632851D01*
X269124174Y-109631500D01*
X269220959Y-109631500D01*
X269224584Y-109631447D01*
X269321302Y-109628610D01*
X269328127Y-109629761D01*
X269328127Y-109629761D01*
G37*
G36*
X250278127Y-109629761D02*
G01*
X250298900Y-109631500D01*
X250305827Y-109631500D01*
X250400754Y-109650382D01*
X250404348Y-109651042D01*
X250499730Y-109667124D01*
X250506203Y-109669585D01*
X250526228Y-109675341D01*
X250533027Y-109676693D01*
X250595414Y-109702534D01*
X250622443Y-109713730D01*
X250625844Y-109715081D01*
X250716255Y-109749461D01*
X250722127Y-109753140D01*
X250740636Y-109762687D01*
X250747045Y-109765342D01*
X250827563Y-109819142D01*
X250830554Y-109821078D01*
X250912557Y-109872459D01*
X250917584Y-109877200D01*
X250933896Y-109890191D01*
X250939652Y-109894037D01*
X251008110Y-109962495D01*
X251010689Y-109964999D01*
X251081090Y-110031389D01*
X251085095Y-110037019D01*
X251098559Y-110052944D01*
X251103459Y-110057844D01*
X251157244Y-110138339D01*
X251159291Y-110141307D01*
X251215380Y-110220145D01*
X251218214Y-110226458D01*
X251228308Y-110244693D01*
X251232158Y-110250455D01*
X251269220Y-110339930D01*
X251270624Y-110343185D01*
X251310265Y-110431473D01*
X251311815Y-110438225D01*
X251318152Y-110458062D01*
X251320807Y-110464473D01*
X251328616Y-110503733D01*
X251339692Y-110559417D01*
X251340438Y-110562901D01*
X251362098Y-110657251D01*
X251362098Y-110657254D01*
X251362300Y-110664154D01*
X251364647Y-110684870D01*
X251366000Y-110691674D01*
X251366000Y-110788486D01*
X251366053Y-110792084D01*
X251367188Y-110830777D01*
X251366295Y-110843725D01*
X251366000Y-110852297D01*
X251366000Y-110923326D01*
X251360081Y-110953085D01*
X251359604Y-110955479D01*
X251357500Y-110971250D01*
X251319238Y-111526045D01*
X251290376Y-111697230D01*
X251208038Y-111913755D01*
X251085041Y-112110057D01*
X250926111Y-112278590D01*
X250737355Y-112412880D01*
X250526027Y-112507765D01*
X250300249Y-112559598D01*
X250068698Y-112566389D01*
X250068697Y-112566389D01*
X250023012Y-112558686D01*
X249840270Y-112527876D01*
X249623745Y-112445538D01*
X249427443Y-112322541D01*
X249258910Y-112163611D01*
X249124620Y-111974855D01*
X249029735Y-111763527D01*
X248977902Y-111537749D01*
X248972812Y-111364223D01*
X249013704Y-110771294D01*
X249014000Y-110762696D01*
X249014000Y-110691675D01*
X249019474Y-110664154D01*
X249032888Y-110596719D01*
X249033544Y-110593145D01*
X249039231Y-110559417D01*
X249049624Y-110497770D01*
X249052085Y-110491299D01*
X249057842Y-110471267D01*
X249059193Y-110464474D01*
X249066048Y-110447924D01*
X249096264Y-110374976D01*
X249097553Y-110371730D01*
X249131962Y-110281245D01*
X249135636Y-110275381D01*
X249145187Y-110256865D01*
X249147842Y-110250455D01*
X249201657Y-110169915D01*
X249203577Y-110166949D01*
X249254959Y-110084943D01*
X249259711Y-110079904D01*
X249272689Y-110063607D01*
X249276537Y-110057848D01*
X249344993Y-109989392D01*
X249347546Y-109986762D01*
X249368023Y-109965048D01*
X249413889Y-109916410D01*
X249419521Y-109912403D01*
X249435447Y-109898938D01*
X249440346Y-109894039D01*
X249520824Y-109840266D01*
X249523806Y-109838210D01*
X249602645Y-109782120D01*
X249608955Y-109779287D01*
X249627194Y-109769191D01*
X249632951Y-109765344D01*
X249632954Y-109765343D01*
X249632955Y-109765342D01*
X249722429Y-109728281D01*
X249725687Y-109726875D01*
X249813973Y-109687235D01*
X249820725Y-109685685D01*
X249840562Y-109679348D01*
X249846973Y-109676693D01*
X249941899Y-109657811D01*
X249945446Y-109657051D01*
X250039751Y-109635401D01*
X250042130Y-109635331D01*
X250046665Y-109635198D01*
X250067381Y-109632851D01*
X250074174Y-109631500D01*
X250170959Y-109631500D01*
X250174584Y-109631447D01*
X250271302Y-109628610D01*
X250278127Y-109629761D01*
X250278127Y-109629761D01*
G37*
G36*
X235534468Y-110447315D02*
G01*
X235573138Y-110459046D01*
X235608777Y-110478096D01*
X235640017Y-110503733D01*
X235665654Y-110534973D01*
X235684704Y-110570612D01*
X235696435Y-110609282D01*
X235701000Y-110655638D01*
X235701000Y-111306862D01*
X235696435Y-111353218D01*
X235684704Y-111391888D01*
X235665654Y-111427527D01*
X235640017Y-111458767D01*
X235608777Y-111484404D01*
X235573138Y-111503454D01*
X235534468Y-111515185D01*
X235488112Y-111519750D01*
X234411888Y-111519750D01*
X234365532Y-111515185D01*
X234326862Y-111503454D01*
X234291223Y-111484404D01*
X234259983Y-111458767D01*
X234234346Y-111427527D01*
X234215296Y-111391888D01*
X234203565Y-111353218D01*
X234199000Y-111306862D01*
X234199000Y-110655638D01*
X234203565Y-110609282D01*
X234215296Y-110570612D01*
X234234346Y-110534973D01*
X234259983Y-110503733D01*
X234291223Y-110478096D01*
X234326862Y-110459046D01*
X234365532Y-110447315D01*
X234411888Y-110442750D01*
X235488112Y-110442750D01*
X235534468Y-110447315D01*
X235534468Y-110447315D01*
G37*
G36*
X231545000Y-111514000D02*
G01*
X229943000Y-111514000D01*
X229943000Y-102862000D01*
X231545000Y-102862000D01*
X231545000Y-111514000D01*
X231545000Y-111514000D01*
G37*
G36*
X220145000Y-111514000D02*
G01*
X218543000Y-111514000D01*
X218543000Y-102862000D01*
X220145000Y-102862000D01*
X220145000Y-111514000D01*
X220145000Y-111514000D01*
G37*
G36*
X198412354Y-106297097D02*
G01*
X198448894Y-106308182D01*
X198482571Y-106326183D01*
X198512091Y-106350409D01*
X198536317Y-106379929D01*
X198554318Y-106413606D01*
X198565403Y-106450146D01*
X198569750Y-106494288D01*
X198569750Y-107443212D01*
X198565403Y-107487354D01*
X198554318Y-107523894D01*
X198536317Y-107557571D01*
X198512091Y-107587091D01*
X198482571Y-107611317D01*
X198448894Y-107629318D01*
X198412354Y-107640403D01*
X198368212Y-107644750D01*
X196919288Y-107644750D01*
X196875146Y-107640403D01*
X196838606Y-107629318D01*
X196804929Y-107611317D01*
X196775409Y-107587091D01*
X196751183Y-107557571D01*
X196733182Y-107523894D01*
X196722097Y-107487354D01*
X196717750Y-107443212D01*
X196717750Y-106494288D01*
X196722097Y-106450146D01*
X196733182Y-106413606D01*
X196751183Y-106379929D01*
X196775409Y-106350409D01*
X196804929Y-106326183D01*
X196838606Y-106308182D01*
X196875146Y-106297097D01*
X196919288Y-106292750D01*
X198368212Y-106292750D01*
X198412354Y-106297097D01*
X198412354Y-106297097D01*
G37*
G36*
X214064468Y-105679565D02*
G01*
X214103138Y-105691296D01*
X214138777Y-105710346D01*
X214170017Y-105735983D01*
X214195654Y-105767223D01*
X214214704Y-105802862D01*
X214226435Y-105841532D01*
X214231000Y-105887888D01*
X214231000Y-106964112D01*
X214226435Y-107010468D01*
X214214704Y-107049138D01*
X214195654Y-107084777D01*
X214170017Y-107116017D01*
X214138777Y-107141654D01*
X214103138Y-107160704D01*
X214064468Y-107172435D01*
X214018112Y-107177000D01*
X213366888Y-107177000D01*
X213320532Y-107172435D01*
X213281862Y-107160704D01*
X213246223Y-107141654D01*
X213214983Y-107116017D01*
X213189346Y-107084777D01*
X213170296Y-107049138D01*
X213158565Y-107010468D01*
X213154000Y-106964112D01*
X213154000Y-105887888D01*
X213158565Y-105841532D01*
X213170296Y-105802862D01*
X213189346Y-105767223D01*
X213214983Y-105735983D01*
X213246223Y-105710346D01*
X213281862Y-105691296D01*
X213320532Y-105679565D01*
X213366888Y-105675000D01*
X214018112Y-105675000D01*
X214064468Y-105679565D01*
X214064468Y-105679565D01*
G37*
G36*
X215939468Y-105679565D02*
G01*
X215978138Y-105691296D01*
X216013777Y-105710346D01*
X216045017Y-105735983D01*
X216070654Y-105767223D01*
X216089704Y-105802862D01*
X216101435Y-105841532D01*
X216106000Y-105887888D01*
X216106000Y-106964112D01*
X216101435Y-107010468D01*
X216089704Y-107049138D01*
X216070654Y-107084777D01*
X216045017Y-107116017D01*
X216013777Y-107141654D01*
X215978138Y-107160704D01*
X215939468Y-107172435D01*
X215893112Y-107177000D01*
X215241888Y-107177000D01*
X215195532Y-107172435D01*
X215156862Y-107160704D01*
X215121223Y-107141654D01*
X215089983Y-107116017D01*
X215064346Y-107084777D01*
X215045296Y-107049138D01*
X215033565Y-107010468D01*
X215029000Y-106964112D01*
X215029000Y-105887888D01*
X215033565Y-105841532D01*
X215045296Y-105802862D01*
X215064346Y-105767223D01*
X215089983Y-105735983D01*
X215121223Y-105710346D01*
X215156862Y-105691296D01*
X215195532Y-105679565D01*
X215241888Y-105675000D01*
X215893112Y-105675000D01*
X215939468Y-105679565D01*
X215939468Y-105679565D01*
G37*
G36*
X236042468Y-104670565D02*
G01*
X236081138Y-104682296D01*
X236116777Y-104701346D01*
X236148017Y-104726983D01*
X236173654Y-104758223D01*
X236192704Y-104793862D01*
X236204435Y-104832532D01*
X236209000Y-104878888D01*
X236209000Y-105530112D01*
X236204435Y-105576468D01*
X236192704Y-105615138D01*
X236173654Y-105650777D01*
X236148017Y-105682017D01*
X236116777Y-105707654D01*
X236081138Y-105726704D01*
X236042468Y-105738435D01*
X235996112Y-105743000D01*
X234919888Y-105743000D01*
X234873532Y-105738435D01*
X234834862Y-105726704D01*
X234799223Y-105707654D01*
X234767983Y-105682017D01*
X234742346Y-105650777D01*
X234723296Y-105615138D01*
X234711565Y-105576468D01*
X234707000Y-105530112D01*
X234707000Y-104878888D01*
X234711565Y-104832532D01*
X234723296Y-104793862D01*
X234742346Y-104758223D01*
X234767983Y-104726983D01*
X234799223Y-104701346D01*
X234834862Y-104682296D01*
X234873532Y-104670565D01*
X234919888Y-104666000D01*
X235996112Y-104666000D01*
X236042468Y-104670565D01*
X236042468Y-104670565D01*
G37*
G36*
X198412354Y-103497097D02*
G01*
X198448894Y-103508182D01*
X198482571Y-103526183D01*
X198512091Y-103550409D01*
X198536317Y-103579929D01*
X198554318Y-103613606D01*
X198565403Y-103650146D01*
X198569750Y-103694288D01*
X198569750Y-104643212D01*
X198565403Y-104687354D01*
X198554318Y-104723894D01*
X198536317Y-104757571D01*
X198512091Y-104787091D01*
X198482571Y-104811317D01*
X198448894Y-104829318D01*
X198412354Y-104840403D01*
X198368212Y-104844750D01*
X196919288Y-104844750D01*
X196875146Y-104840403D01*
X196838606Y-104829318D01*
X196804929Y-104811317D01*
X196775409Y-104787091D01*
X196751183Y-104757571D01*
X196733182Y-104723894D01*
X196722097Y-104687354D01*
X196717750Y-104643212D01*
X196717750Y-103694288D01*
X196722097Y-103650146D01*
X196733182Y-103613606D01*
X196751183Y-103579929D01*
X196775409Y-103550409D01*
X196804929Y-103526183D01*
X196838606Y-103508182D01*
X196875146Y-103497097D01*
X196919288Y-103492750D01*
X198368212Y-103492750D01*
X198412354Y-103497097D01*
X198412354Y-103497097D01*
G37*
G36*
X236042468Y-102795565D02*
G01*
X236081138Y-102807296D01*
X236116777Y-102826346D01*
X236148017Y-102851983D01*
X236173654Y-102883223D01*
X236192704Y-102918862D01*
X236204435Y-102957532D01*
X236209000Y-103003888D01*
X236209000Y-103655112D01*
X236204435Y-103701468D01*
X236192704Y-103740138D01*
X236173654Y-103775777D01*
X236148017Y-103807017D01*
X236116777Y-103832654D01*
X236081138Y-103851704D01*
X236042468Y-103863435D01*
X235996112Y-103868000D01*
X234919888Y-103868000D01*
X234873532Y-103863435D01*
X234834862Y-103851704D01*
X234799223Y-103832654D01*
X234767983Y-103807017D01*
X234742346Y-103775777D01*
X234723296Y-103740138D01*
X234711565Y-103701468D01*
X234707000Y-103655112D01*
X234707000Y-103003888D01*
X234711565Y-102957532D01*
X234723296Y-102918862D01*
X234742346Y-102883223D01*
X234767983Y-102851983D01*
X234799223Y-102826346D01*
X234834862Y-102807296D01*
X234873532Y-102795565D01*
X234919888Y-102791000D01*
X235996112Y-102791000D01*
X236042468Y-102795565D01*
X236042468Y-102795565D01*
G37*
G36*
X229370000Y-102289000D02*
G01*
X220718000Y-102289000D01*
X220718000Y-100687000D01*
X229370000Y-100687000D01*
X229370000Y-102289000D01*
X229370000Y-102289000D01*
G37*
G36*
X204578218Y-99622315D02*
G01*
X204616888Y-99634046D01*
X204652527Y-99653096D01*
X204683767Y-99678733D01*
X204709404Y-99709973D01*
X204728454Y-99745612D01*
X204740185Y-99784282D01*
X204744750Y-99830638D01*
X204744750Y-100481862D01*
X204740185Y-100528218D01*
X204728454Y-100566888D01*
X204709404Y-100602527D01*
X204683767Y-100633767D01*
X204652527Y-100659404D01*
X204616888Y-100678454D01*
X204578218Y-100690185D01*
X204531862Y-100694750D01*
X203455638Y-100694750D01*
X203409282Y-100690185D01*
X203370612Y-100678454D01*
X203334973Y-100659404D01*
X203303733Y-100633767D01*
X203278096Y-100602527D01*
X203259046Y-100566888D01*
X203247315Y-100528218D01*
X203242750Y-100481862D01*
X203242750Y-99830638D01*
X203247315Y-99784282D01*
X203259046Y-99745612D01*
X203278096Y-99709973D01*
X203303733Y-99678733D01*
X203334973Y-99653096D01*
X203370612Y-99634046D01*
X203409282Y-99622315D01*
X203455638Y-99617750D01*
X204531862Y-99617750D01*
X204578218Y-99622315D01*
X204578218Y-99622315D01*
G37*
G36*
X201403218Y-99622315D02*
G01*
X201441888Y-99634046D01*
X201477527Y-99653096D01*
X201508767Y-99678733D01*
X201534404Y-99709973D01*
X201553454Y-99745612D01*
X201565185Y-99784282D01*
X201569750Y-99830638D01*
X201569750Y-100481862D01*
X201565185Y-100528218D01*
X201553454Y-100566888D01*
X201534404Y-100602527D01*
X201508767Y-100633767D01*
X201477527Y-100659404D01*
X201441888Y-100678454D01*
X201403218Y-100690185D01*
X201356862Y-100694750D01*
X200280638Y-100694750D01*
X200234282Y-100690185D01*
X200195612Y-100678454D01*
X200159973Y-100659404D01*
X200128733Y-100633767D01*
X200103096Y-100602527D01*
X200084046Y-100566888D01*
X200072315Y-100528218D01*
X200067750Y-100481862D01*
X200067750Y-99830638D01*
X200072315Y-99784282D01*
X200084046Y-99745612D01*
X200103096Y-99709973D01*
X200128733Y-99678733D01*
X200159973Y-99653096D01*
X200195612Y-99634046D01*
X200234282Y-99622315D01*
X200280638Y-99617750D01*
X201356862Y-99617750D01*
X201403218Y-99622315D01*
X201403218Y-99622315D01*
G37*
G36*
X213309468Y-98828565D02*
G01*
X213348138Y-98840296D01*
X213383777Y-98859346D01*
X213415017Y-98884983D01*
X213440654Y-98916223D01*
X213459704Y-98951862D01*
X213471435Y-98990532D01*
X213476000Y-99036888D01*
X213476000Y-99688112D01*
X213471435Y-99734468D01*
X213459704Y-99773138D01*
X213440654Y-99808777D01*
X213415017Y-99840017D01*
X213383777Y-99865654D01*
X213348138Y-99884704D01*
X213309468Y-99896435D01*
X213263112Y-99901000D01*
X212186888Y-99901000D01*
X212140532Y-99896435D01*
X212101862Y-99884704D01*
X212066223Y-99865654D01*
X212034983Y-99840017D01*
X212009346Y-99808777D01*
X211990296Y-99773138D01*
X211978565Y-99734468D01*
X211974000Y-99688112D01*
X211974000Y-99036888D01*
X211978565Y-98990532D01*
X211990296Y-98951862D01*
X212009346Y-98916223D01*
X212034983Y-98884983D01*
X212066223Y-98859346D01*
X212101862Y-98840296D01*
X212140532Y-98828565D01*
X212186888Y-98824000D01*
X213263112Y-98824000D01*
X213309468Y-98828565D01*
X213309468Y-98828565D01*
G37*
G36*
X216865468Y-98765065D02*
G01*
X216904138Y-98776796D01*
X216939777Y-98795846D01*
X216971017Y-98821483D01*
X216996654Y-98852723D01*
X217015704Y-98888362D01*
X217027435Y-98927032D01*
X217032000Y-98973388D01*
X217032000Y-99624612D01*
X217027435Y-99670968D01*
X217015704Y-99709638D01*
X216996654Y-99745277D01*
X216971017Y-99776517D01*
X216939777Y-99802154D01*
X216904138Y-99821204D01*
X216865468Y-99832935D01*
X216819112Y-99837500D01*
X215742888Y-99837500D01*
X215696532Y-99832935D01*
X215657862Y-99821204D01*
X215622223Y-99802154D01*
X215590983Y-99776517D01*
X215565346Y-99745277D01*
X215546296Y-99709638D01*
X215534565Y-99670968D01*
X215530000Y-99624612D01*
X215530000Y-98973388D01*
X215534565Y-98927032D01*
X215546296Y-98888362D01*
X215565346Y-98852723D01*
X215590983Y-98821483D01*
X215622223Y-98795846D01*
X215657862Y-98776796D01*
X215696532Y-98765065D01*
X215742888Y-98760500D01*
X216819112Y-98760500D01*
X216865468Y-98765065D01*
X216865468Y-98765065D01*
G37*
G36*
X275288500Y-98988500D02*
G01*
X273986500Y-98988500D01*
X273986500Y-97986500D01*
X275288500Y-97986500D01*
X275288500Y-98988500D01*
X275288500Y-98988500D01*
G37*
G36*
X256238500Y-98988500D02*
G01*
X254936500Y-98988500D01*
X254936500Y-97986500D01*
X256238500Y-97986500D01*
X256238500Y-98988500D01*
X256238500Y-98988500D01*
G37*
G36*
X248246474Y-94871184D02*
G01*
X248454871Y-94957505D01*
X248618623Y-95025333D01*
X248953548Y-95249123D01*
X249238377Y-95533952D01*
X249462167Y-95868877D01*
X249494562Y-95947086D01*
X249616316Y-96241026D01*
X249694900Y-96636094D01*
X249694900Y-97038906D01*
X249616316Y-97433974D01*
X249565451Y-97556772D01*
X249462167Y-97806123D01*
X249238377Y-98141048D01*
X248953548Y-98425877D01*
X248618623Y-98649667D01*
X248516692Y-98691888D01*
X248246474Y-98803816D01*
X247851406Y-98882400D01*
X247448594Y-98882400D01*
X247053526Y-98803816D01*
X246783308Y-98691888D01*
X246681377Y-98649667D01*
X246346452Y-98425877D01*
X246061623Y-98141048D01*
X245837833Y-97806123D01*
X245734549Y-97556772D01*
X245683684Y-97433974D01*
X245605100Y-97038906D01*
X245605100Y-96636094D01*
X245683684Y-96241026D01*
X245805438Y-95947086D01*
X245837833Y-95868877D01*
X246061623Y-95533952D01*
X246346452Y-95249123D01*
X246681377Y-95025333D01*
X246845129Y-94957505D01*
X247053526Y-94871184D01*
X247448594Y-94792600D01*
X247851406Y-94792600D01*
X248246474Y-94871184D01*
X248246474Y-94871184D01*
G37*
G36*
X267296474Y-94871184D02*
G01*
X267504871Y-94957505D01*
X267668623Y-95025333D01*
X268003548Y-95249123D01*
X268288377Y-95533952D01*
X268512167Y-95868877D01*
X268544562Y-95947086D01*
X268666316Y-96241026D01*
X268744900Y-96636094D01*
X268744900Y-97038906D01*
X268666316Y-97433974D01*
X268615451Y-97556772D01*
X268512167Y-97806123D01*
X268288377Y-98141048D01*
X268003548Y-98425877D01*
X267668623Y-98649667D01*
X267566692Y-98691888D01*
X267296474Y-98803816D01*
X266901406Y-98882400D01*
X266498594Y-98882400D01*
X266103526Y-98803816D01*
X265833308Y-98691888D01*
X265731377Y-98649667D01*
X265396452Y-98425877D01*
X265111623Y-98141048D01*
X264887833Y-97806123D01*
X264784549Y-97556772D01*
X264733684Y-97433974D01*
X264655100Y-97038906D01*
X264655100Y-96636094D01*
X264733684Y-96241026D01*
X264855438Y-95947086D01*
X264887833Y-95868877D01*
X265111623Y-95533952D01*
X265396452Y-95249123D01*
X265731377Y-95025333D01*
X265895129Y-94957505D01*
X266103526Y-94871184D01*
X266498594Y-94792600D01*
X266901406Y-94792600D01*
X267296474Y-94871184D01*
X267296474Y-94871184D01*
G37*
G36*
X204578218Y-97747315D02*
G01*
X204616888Y-97759046D01*
X204652527Y-97778096D01*
X204683767Y-97803733D01*
X204709404Y-97834973D01*
X204728454Y-97870612D01*
X204740185Y-97909282D01*
X204744750Y-97955638D01*
X204744750Y-98606862D01*
X204740185Y-98653218D01*
X204728454Y-98691888D01*
X204709404Y-98727527D01*
X204683767Y-98758767D01*
X204652527Y-98784404D01*
X204616888Y-98803454D01*
X204578218Y-98815185D01*
X204531862Y-98819750D01*
X203455638Y-98819750D01*
X203409282Y-98815185D01*
X203370612Y-98803454D01*
X203334973Y-98784404D01*
X203303733Y-98758767D01*
X203278096Y-98727527D01*
X203259046Y-98691888D01*
X203247315Y-98653218D01*
X203242750Y-98606862D01*
X203242750Y-97955638D01*
X203247315Y-97909282D01*
X203259046Y-97870612D01*
X203278096Y-97834973D01*
X203303733Y-97803733D01*
X203334973Y-97778096D01*
X203370612Y-97759046D01*
X203409282Y-97747315D01*
X203455638Y-97742750D01*
X204531862Y-97742750D01*
X204578218Y-97747315D01*
X204578218Y-97747315D01*
G37*
G36*
X201403218Y-97747315D02*
G01*
X201441888Y-97759046D01*
X201477527Y-97778096D01*
X201508767Y-97803733D01*
X201534404Y-97834973D01*
X201553454Y-97870612D01*
X201565185Y-97909282D01*
X201569750Y-97955638D01*
X201569750Y-98606862D01*
X201565185Y-98653218D01*
X201553454Y-98691888D01*
X201534404Y-98727527D01*
X201508767Y-98758767D01*
X201477527Y-98784404D01*
X201441888Y-98803454D01*
X201403218Y-98815185D01*
X201356862Y-98819750D01*
X200280638Y-98819750D01*
X200234282Y-98815185D01*
X200195612Y-98803454D01*
X200159973Y-98784404D01*
X200128733Y-98758767D01*
X200103096Y-98727527D01*
X200084046Y-98691888D01*
X200072315Y-98653218D01*
X200067750Y-98606862D01*
X200067750Y-97955638D01*
X200072315Y-97909282D01*
X200084046Y-97870612D01*
X200103096Y-97834973D01*
X200128733Y-97803733D01*
X200159973Y-97778096D01*
X200195612Y-97759046D01*
X200234282Y-97747315D01*
X200280638Y-97742750D01*
X201356862Y-97742750D01*
X201403218Y-97747315D01*
X201403218Y-97747315D01*
G37*
G36*
X213309468Y-96953565D02*
G01*
X213348138Y-96965296D01*
X213383777Y-96984346D01*
X213415017Y-97009983D01*
X213440654Y-97041223D01*
X213459704Y-97076862D01*
X213471435Y-97115532D01*
X213476000Y-97161888D01*
X213476000Y-97813112D01*
X213471435Y-97859468D01*
X213459704Y-97898138D01*
X213440654Y-97933777D01*
X213415017Y-97965017D01*
X213383777Y-97990654D01*
X213348138Y-98009704D01*
X213309468Y-98021435D01*
X213263112Y-98026000D01*
X212186888Y-98026000D01*
X212140532Y-98021435D01*
X212101862Y-98009704D01*
X212066223Y-97990654D01*
X212034983Y-97965017D01*
X212009346Y-97933777D01*
X211990296Y-97898138D01*
X211978565Y-97859468D01*
X211974000Y-97813112D01*
X211974000Y-97161888D01*
X211978565Y-97115532D01*
X211990296Y-97076862D01*
X212009346Y-97041223D01*
X212034983Y-97009983D01*
X212066223Y-96984346D01*
X212101862Y-96965296D01*
X212140532Y-96953565D01*
X212186888Y-96949000D01*
X213263112Y-96949000D01*
X213309468Y-96953565D01*
X213309468Y-96953565D01*
G37*
G36*
X216865468Y-96890065D02*
G01*
X216904138Y-96901796D01*
X216939777Y-96920846D01*
X216971017Y-96946483D01*
X216996654Y-96977723D01*
X217015704Y-97013362D01*
X217027435Y-97052032D01*
X217032000Y-97098388D01*
X217032000Y-97749612D01*
X217027435Y-97795968D01*
X217015704Y-97834638D01*
X216996654Y-97870277D01*
X216971017Y-97901517D01*
X216939777Y-97927154D01*
X216904138Y-97946204D01*
X216865468Y-97957935D01*
X216819112Y-97962500D01*
X215742888Y-97962500D01*
X215696532Y-97957935D01*
X215657862Y-97946204D01*
X215622223Y-97927154D01*
X215590983Y-97901517D01*
X215565346Y-97870277D01*
X215546296Y-97834638D01*
X215534565Y-97795968D01*
X215530000Y-97749612D01*
X215530000Y-97098388D01*
X215534565Y-97052032D01*
X215546296Y-97013362D01*
X215565346Y-96977723D01*
X215590983Y-96946483D01*
X215622223Y-96920846D01*
X215657862Y-96901796D01*
X215696532Y-96890065D01*
X215742888Y-96885500D01*
X216819112Y-96885500D01*
X216865468Y-96890065D01*
X216865468Y-96890065D01*
G37*
G36*
X242840104Y-95947085D02*
G01*
X243008626Y-96016889D01*
X243160291Y-96118228D01*
X243289272Y-96247209D01*
X243390611Y-96398874D01*
X243460415Y-96567396D01*
X243496000Y-96746297D01*
X243496000Y-96928703D01*
X243460415Y-97107604D01*
X243390611Y-97276126D01*
X243289272Y-97427791D01*
X243160291Y-97556772D01*
X243008626Y-97658111D01*
X242840104Y-97727915D01*
X242661203Y-97763500D01*
X242478797Y-97763500D01*
X242299896Y-97727915D01*
X242131374Y-97658111D01*
X241979709Y-97556772D01*
X241850728Y-97427791D01*
X241749389Y-97276126D01*
X241679585Y-97107604D01*
X241644000Y-96928703D01*
X241644000Y-96746297D01*
X241679585Y-96567396D01*
X241749389Y-96398874D01*
X241850728Y-96247209D01*
X241979709Y-96118228D01*
X242131374Y-96016889D01*
X242299896Y-95947085D01*
X242478797Y-95911500D01*
X242661203Y-95911500D01*
X242840104Y-95947085D01*
X242840104Y-95947085D01*
G37*
G36*
X253000104Y-95947085D02*
G01*
X253168626Y-96016889D01*
X253320291Y-96118228D01*
X253449272Y-96247209D01*
X253550611Y-96398874D01*
X253620415Y-96567396D01*
X253656000Y-96746297D01*
X253656000Y-96928703D01*
X253620415Y-97107604D01*
X253550611Y-97276126D01*
X253449272Y-97427791D01*
X253320291Y-97556772D01*
X253168626Y-97658111D01*
X253000104Y-97727915D01*
X252821203Y-97763500D01*
X252638797Y-97763500D01*
X252459896Y-97727915D01*
X252291374Y-97658111D01*
X252139709Y-97556772D01*
X252010728Y-97427791D01*
X251909389Y-97276126D01*
X251839585Y-97107604D01*
X251804000Y-96928703D01*
X251804000Y-96746297D01*
X251839585Y-96567396D01*
X251909389Y-96398874D01*
X252010728Y-96247209D01*
X252139709Y-96118228D01*
X252291374Y-96016889D01*
X252459896Y-95947085D01*
X252638797Y-95911500D01*
X252821203Y-95911500D01*
X253000104Y-95947085D01*
X253000104Y-95947085D01*
G37*
G36*
X261890104Y-95947085D02*
G01*
X262058626Y-96016889D01*
X262210291Y-96118228D01*
X262339272Y-96247209D01*
X262440611Y-96398874D01*
X262510415Y-96567396D01*
X262546000Y-96746297D01*
X262546000Y-96928703D01*
X262510415Y-97107604D01*
X262440611Y-97276126D01*
X262339272Y-97427791D01*
X262210291Y-97556772D01*
X262058626Y-97658111D01*
X261890104Y-97727915D01*
X261711203Y-97763500D01*
X261528797Y-97763500D01*
X261349896Y-97727915D01*
X261181374Y-97658111D01*
X261029709Y-97556772D01*
X260900728Y-97427791D01*
X260799389Y-97276126D01*
X260729585Y-97107604D01*
X260694000Y-96928703D01*
X260694000Y-96746297D01*
X260729585Y-96567396D01*
X260799389Y-96398874D01*
X260900728Y-96247209D01*
X261029709Y-96118228D01*
X261181374Y-96016889D01*
X261349896Y-95947085D01*
X261528797Y-95911500D01*
X261711203Y-95911500D01*
X261890104Y-95947085D01*
X261890104Y-95947085D01*
G37*
G36*
X272050104Y-95947085D02*
G01*
X272218626Y-96016889D01*
X272370291Y-96118228D01*
X272499272Y-96247209D01*
X272600611Y-96398874D01*
X272670415Y-96567396D01*
X272706000Y-96746297D01*
X272706000Y-96928703D01*
X272670415Y-97107604D01*
X272600611Y-97276126D01*
X272499272Y-97427791D01*
X272370291Y-97556772D01*
X272218626Y-97658111D01*
X272050104Y-97727915D01*
X271871203Y-97763500D01*
X271688797Y-97763500D01*
X271509896Y-97727915D01*
X271341374Y-97658111D01*
X271189709Y-97556772D01*
X271060728Y-97427791D01*
X270959389Y-97276126D01*
X270889585Y-97107604D01*
X270854000Y-96928703D01*
X270854000Y-96746297D01*
X270889585Y-96567396D01*
X270959389Y-96398874D01*
X271060728Y-96247209D01*
X271189709Y-96118228D01*
X271341374Y-96016889D01*
X271509896Y-95947085D01*
X271688797Y-95911500D01*
X271871203Y-95911500D01*
X272050104Y-95947085D01*
X272050104Y-95947085D01*
G37*
G36*
X226387000Y-96878000D02*
G01*
X224885000Y-96878000D01*
X224885000Y-95576000D01*
X226387000Y-95576000D01*
X226387000Y-96878000D01*
X226387000Y-96878000D01*
G37*
G36*
X224187000Y-96878000D02*
G01*
X222685000Y-96878000D01*
X222685000Y-95576000D01*
X224187000Y-95576000D01*
X224187000Y-96878000D01*
X224187000Y-96878000D01*
G37*
G36*
X220167468Y-95780565D02*
G01*
X220206138Y-95792296D01*
X220241777Y-95811346D01*
X220273017Y-95836983D01*
X220298654Y-95868223D01*
X220317704Y-95903862D01*
X220329435Y-95942532D01*
X220334000Y-95988888D01*
X220334000Y-96640112D01*
X220329435Y-96686468D01*
X220317704Y-96725138D01*
X220298654Y-96760777D01*
X220273017Y-96792017D01*
X220241777Y-96817654D01*
X220206138Y-96836704D01*
X220167468Y-96848435D01*
X220121112Y-96853000D01*
X219044888Y-96853000D01*
X218998532Y-96848435D01*
X218959862Y-96836704D01*
X218924223Y-96817654D01*
X218892983Y-96792017D01*
X218867346Y-96760777D01*
X218848296Y-96725138D01*
X218836565Y-96686468D01*
X218832000Y-96640112D01*
X218832000Y-95988888D01*
X218836565Y-95942532D01*
X218848296Y-95903862D01*
X218867346Y-95868223D01*
X218892983Y-95836983D01*
X218924223Y-95811346D01*
X218959862Y-95792296D01*
X218998532Y-95780565D01*
X219044888Y-95776000D01*
X220121112Y-95776000D01*
X220167468Y-95780565D01*
X220167468Y-95780565D01*
G37*
G36*
X230073468Y-95653565D02*
G01*
X230112138Y-95665296D01*
X230147777Y-95684346D01*
X230179017Y-95709983D01*
X230204654Y-95741223D01*
X230223704Y-95776862D01*
X230235435Y-95815532D01*
X230240000Y-95861888D01*
X230240000Y-96513112D01*
X230235435Y-96559468D01*
X230223704Y-96598138D01*
X230204654Y-96633777D01*
X230179017Y-96665017D01*
X230147777Y-96690654D01*
X230112138Y-96709704D01*
X230073468Y-96721435D01*
X230027112Y-96726000D01*
X228950888Y-96726000D01*
X228904532Y-96721435D01*
X228865862Y-96709704D01*
X228830223Y-96690654D01*
X228798983Y-96665017D01*
X228773346Y-96633777D01*
X228754296Y-96598138D01*
X228742565Y-96559468D01*
X228738000Y-96513112D01*
X228738000Y-95861888D01*
X228742565Y-95815532D01*
X228754296Y-95776862D01*
X228773346Y-95741223D01*
X228798983Y-95709983D01*
X228830223Y-95684346D01*
X228865862Y-95665296D01*
X228904532Y-95653565D01*
X228950888Y-95649000D01*
X230027112Y-95649000D01*
X230073468Y-95653565D01*
X230073468Y-95653565D01*
G37*
G36*
X275288500Y-95688500D02*
G01*
X273986500Y-95688500D01*
X273986500Y-94686500D01*
X275288500Y-94686500D01*
X275288500Y-95688500D01*
X275288500Y-95688500D01*
G37*
G36*
X256238500Y-95688500D02*
G01*
X254936500Y-95688500D01*
X254936500Y-94686500D01*
X256238500Y-94686500D01*
X256238500Y-95688500D01*
X256238500Y-95688500D01*
G37*
G36*
X264223205Y-91661381D02*
G01*
X264228645Y-91661500D01*
X264315828Y-91661500D01*
X264332097Y-91664736D01*
X264350956Y-91667015D01*
X264367532Y-91667746D01*
X264452223Y-91688510D01*
X264457518Y-91689684D01*
X264543027Y-91706693D01*
X264558362Y-91713045D01*
X264576401Y-91718955D01*
X264592521Y-91722907D01*
X264671504Y-91759780D01*
X264676494Y-91761977D01*
X264757045Y-91795342D01*
X264770841Y-91804560D01*
X264787393Y-91813882D01*
X264802426Y-91820900D01*
X264872694Y-91872471D01*
X264877192Y-91875622D01*
X264949656Y-91924041D01*
X264961383Y-91935768D01*
X264975809Y-91948148D01*
X264989179Y-91957961D01*
X265038687Y-92012037D01*
X265048021Y-92022233D01*
X265051829Y-92026214D01*
X265113459Y-92087844D01*
X265122674Y-92101635D01*
X265134396Y-92116578D01*
X265145605Y-92128821D01*
X265190799Y-92203374D01*
X265193746Y-92208001D01*
X265242158Y-92280455D01*
X265248505Y-92295777D01*
X265257092Y-92312731D01*
X265265691Y-92326917D01*
X265295478Y-92408868D01*
X265297452Y-92413948D01*
X265330807Y-92494473D01*
X265330807Y-92494474D01*
X265334041Y-92510733D01*
X265339158Y-92529042D01*
X265344825Y-92544634D01*
X265358055Y-92630845D01*
X265359001Y-92636213D01*
X265376000Y-92721673D01*
X265376000Y-92738252D01*
X265377444Y-92757192D01*
X265379963Y-92773604D01*
X265376120Y-92860749D01*
X265376000Y-92866189D01*
X265376000Y-92953325D01*
X265372766Y-92969583D01*
X265370488Y-92988441D01*
X265369756Y-93005031D01*
X265348988Y-93089737D01*
X265347812Y-93095037D01*
X265330807Y-93180527D01*
X265324457Y-93195857D01*
X265318549Y-93213893D01*
X265314595Y-93230020D01*
X265277711Y-93309026D01*
X265275511Y-93314023D01*
X265242158Y-93394545D01*
X265232944Y-93408335D01*
X265223622Y-93424887D01*
X265216602Y-93439924D01*
X265165011Y-93510220D01*
X265161866Y-93514710D01*
X265113461Y-93587154D01*
X265056460Y-93644155D01*
X265051811Y-93649063D01*
X264718388Y-94020663D01*
X263726723Y-95125876D01*
X263598679Y-95243102D01*
X263499630Y-95303146D01*
X263400583Y-95363189D01*
X263182866Y-95442323D01*
X262953895Y-95477461D01*
X262722470Y-95467254D01*
X262497481Y-95412093D01*
X262392727Y-95363189D01*
X262287579Y-95314102D01*
X262190838Y-95243102D01*
X262100823Y-95177039D01*
X262026394Y-95095741D01*
X261944398Y-95006179D01*
X261862564Y-94871185D01*
X261824311Y-94808083D01*
X261745177Y-94590366D01*
X261710039Y-94361395D01*
X261720246Y-94129970D01*
X261775407Y-93904981D01*
X261828947Y-93790296D01*
X261873398Y-93695080D01*
X261873400Y-93695077D01*
X261976114Y-93555122D01*
X262722409Y-92723375D01*
X263262787Y-92121121D01*
X263273681Y-92107089D01*
X263286539Y-92087846D01*
X263343573Y-92030812D01*
X263348223Y-92025903D01*
X263363278Y-92009124D01*
X263384701Y-91989511D01*
X263388682Y-91985703D01*
X263450346Y-91924039D01*
X263464143Y-91914820D01*
X263479102Y-91903085D01*
X263491321Y-91891898D01*
X263523385Y-91872461D01*
X263565830Y-91846731D01*
X263570421Y-91843808D01*
X263642955Y-91795342D01*
X263658300Y-91788986D01*
X263675248Y-91780401D01*
X263689416Y-91771812D01*
X263689417Y-91771812D01*
X263689418Y-91771811D01*
X263771312Y-91742045D01*
X263776410Y-91740063D01*
X263856973Y-91706693D01*
X263873252Y-91703455D01*
X263891542Y-91698344D01*
X263907135Y-91692677D01*
X263993300Y-91679454D01*
X263998663Y-91678509D01*
X264084173Y-91661500D01*
X264100766Y-91661500D01*
X264119709Y-91660055D01*
X264136106Y-91657539D01*
X264223205Y-91661381D01*
X264223205Y-91661381D01*
G37*
G36*
X245173205Y-91661381D02*
G01*
X245178645Y-91661500D01*
X245265828Y-91661500D01*
X245282097Y-91664736D01*
X245300956Y-91667015D01*
X245317532Y-91667746D01*
X245402223Y-91688510D01*
X245407518Y-91689684D01*
X245493027Y-91706693D01*
X245508362Y-91713045D01*
X245526401Y-91718955D01*
X245542521Y-91722907D01*
X245621504Y-91759780D01*
X245626494Y-91761977D01*
X245707045Y-91795342D01*
X245720841Y-91804560D01*
X245737393Y-91813882D01*
X245752426Y-91820900D01*
X245822694Y-91872471D01*
X245827192Y-91875622D01*
X245899656Y-91924041D01*
X245911383Y-91935768D01*
X245925809Y-91948148D01*
X245939179Y-91957961D01*
X245988687Y-92012037D01*
X245998021Y-92022233D01*
X246001829Y-92026214D01*
X246063459Y-92087844D01*
X246072674Y-92101635D01*
X246084396Y-92116578D01*
X246095605Y-92128821D01*
X246140799Y-92203374D01*
X246143746Y-92208001D01*
X246192158Y-92280455D01*
X246198505Y-92295777D01*
X246207092Y-92312731D01*
X246215691Y-92326917D01*
X246245478Y-92408868D01*
X246247452Y-92413948D01*
X246280807Y-92494473D01*
X246280807Y-92494474D01*
X246284041Y-92510733D01*
X246289158Y-92529042D01*
X246294825Y-92544634D01*
X246308055Y-92630845D01*
X246309001Y-92636213D01*
X246326000Y-92721673D01*
X246326000Y-92738252D01*
X246327444Y-92757192D01*
X246329963Y-92773604D01*
X246326120Y-92860749D01*
X246326000Y-92866189D01*
X246326000Y-92953325D01*
X246322766Y-92969583D01*
X246320488Y-92988441D01*
X246319756Y-93005031D01*
X246298988Y-93089737D01*
X246297812Y-93095037D01*
X246280807Y-93180527D01*
X246274457Y-93195857D01*
X246268549Y-93213893D01*
X246264595Y-93230020D01*
X246227711Y-93309026D01*
X246225511Y-93314023D01*
X246192158Y-93394545D01*
X246182944Y-93408335D01*
X246173622Y-93424887D01*
X246166602Y-93439924D01*
X246115011Y-93510220D01*
X246111866Y-93514710D01*
X246063461Y-93587154D01*
X246006460Y-93644155D01*
X246001811Y-93649063D01*
X245668388Y-94020663D01*
X244676723Y-95125876D01*
X244548679Y-95243102D01*
X244449630Y-95303146D01*
X244350583Y-95363189D01*
X244132866Y-95442323D01*
X243903895Y-95477461D01*
X243672470Y-95467254D01*
X243447481Y-95412093D01*
X243342727Y-95363189D01*
X243237579Y-95314102D01*
X243140838Y-95243102D01*
X243050823Y-95177039D01*
X242976394Y-95095741D01*
X242894398Y-95006179D01*
X242812564Y-94871185D01*
X242774311Y-94808083D01*
X242695177Y-94590366D01*
X242660039Y-94361395D01*
X242670246Y-94129970D01*
X242725407Y-93904981D01*
X242778947Y-93790296D01*
X242823398Y-93695080D01*
X242823400Y-93695077D01*
X242926114Y-93555122D01*
X243672409Y-92723375D01*
X244212787Y-92121121D01*
X244223681Y-92107089D01*
X244236539Y-92087846D01*
X244293573Y-92030812D01*
X244298223Y-92025903D01*
X244313278Y-92009124D01*
X244334701Y-91989511D01*
X244338682Y-91985703D01*
X244400346Y-91924039D01*
X244414143Y-91914820D01*
X244429102Y-91903085D01*
X244441321Y-91891898D01*
X244473385Y-91872461D01*
X244515830Y-91846731D01*
X244520421Y-91843808D01*
X244592955Y-91795342D01*
X244608300Y-91788986D01*
X244625248Y-91780401D01*
X244639416Y-91771812D01*
X244639417Y-91771812D01*
X244639418Y-91771811D01*
X244721312Y-91742045D01*
X244726410Y-91740063D01*
X244806973Y-91706693D01*
X244823252Y-91703455D01*
X244841542Y-91698344D01*
X244857135Y-91692677D01*
X244943300Y-91679454D01*
X244948663Y-91678509D01*
X245034173Y-91661500D01*
X245050766Y-91661500D01*
X245069709Y-91660055D01*
X245086106Y-91657539D01*
X245173205Y-91661381D01*
X245173205Y-91661381D01*
G37*
G36*
X226387000Y-95178000D02*
G01*
X224885000Y-95178000D01*
X224885000Y-93876000D01*
X226387000Y-93876000D01*
X226387000Y-95178000D01*
X226387000Y-95178000D01*
G37*
G36*
X224187000Y-95178000D02*
G01*
X222685000Y-95178000D01*
X222685000Y-93876000D01*
X224187000Y-93876000D01*
X224187000Y-95178000D01*
X224187000Y-95178000D01*
G37*
G36*
X220167468Y-93905565D02*
G01*
X220206138Y-93917296D01*
X220241777Y-93936346D01*
X220273017Y-93961983D01*
X220298654Y-93993223D01*
X220317704Y-94028862D01*
X220329435Y-94067532D01*
X220334000Y-94113888D01*
X220334000Y-94765112D01*
X220329435Y-94811468D01*
X220317704Y-94850138D01*
X220298654Y-94885777D01*
X220273017Y-94917017D01*
X220241777Y-94942654D01*
X220206138Y-94961704D01*
X220167468Y-94973435D01*
X220121112Y-94978000D01*
X219044888Y-94978000D01*
X218998532Y-94973435D01*
X218959862Y-94961704D01*
X218924223Y-94942654D01*
X218892983Y-94917017D01*
X218867346Y-94885777D01*
X218848296Y-94850138D01*
X218836565Y-94811468D01*
X218832000Y-94765112D01*
X218832000Y-94113888D01*
X218836565Y-94067532D01*
X218848296Y-94028862D01*
X218867346Y-93993223D01*
X218892983Y-93961983D01*
X218924223Y-93936346D01*
X218959862Y-93917296D01*
X218998532Y-93905565D01*
X219044888Y-93901000D01*
X220121112Y-93901000D01*
X220167468Y-93905565D01*
X220167468Y-93905565D01*
G37*
G36*
X230073468Y-93778565D02*
G01*
X230112138Y-93790296D01*
X230147777Y-93809346D01*
X230179017Y-93834983D01*
X230204654Y-93866223D01*
X230223704Y-93901862D01*
X230235435Y-93940532D01*
X230240000Y-93986888D01*
X230240000Y-94638112D01*
X230235435Y-94684468D01*
X230223704Y-94723138D01*
X230204654Y-94758777D01*
X230179017Y-94790017D01*
X230147777Y-94815654D01*
X230112138Y-94834704D01*
X230073468Y-94846435D01*
X230027112Y-94851000D01*
X228950888Y-94851000D01*
X228904532Y-94846435D01*
X228865862Y-94834704D01*
X228830223Y-94815654D01*
X228798983Y-94790017D01*
X228773346Y-94758777D01*
X228754296Y-94723138D01*
X228742565Y-94684468D01*
X228738000Y-94638112D01*
X228738000Y-93986888D01*
X228742565Y-93940532D01*
X228754296Y-93901862D01*
X228773346Y-93866223D01*
X228798983Y-93834983D01*
X228830223Y-93809346D01*
X228865862Y-93790296D01*
X228904532Y-93778565D01*
X228950888Y-93774000D01*
X230027112Y-93774000D01*
X230073468Y-93778565D01*
X230073468Y-93778565D01*
G37*
G36*
X199726627Y-92012037D02*
G01*
X199896466Y-92063557D01*
X200052991Y-92147222D01*
X200088729Y-92176552D01*
X200190186Y-92259814D01*
X200245254Y-92326916D01*
X200302778Y-92397009D01*
X200386443Y-92553534D01*
X200437963Y-92723373D01*
X200437963Y-92723375D01*
X200451000Y-92855740D01*
X200451000Y-93944260D01*
X200446801Y-93986888D01*
X200437963Y-94076627D01*
X200386443Y-94246466D01*
X200302778Y-94402991D01*
X200273448Y-94438729D01*
X200190186Y-94540186D01*
X200052989Y-94652779D01*
X199948275Y-94708750D01*
X199896465Y-94736443D01*
X199726626Y-94787963D01*
X199550000Y-94805359D01*
X199373373Y-94787963D01*
X199203534Y-94736443D01*
X199047009Y-94652778D01*
X198970966Y-94590371D01*
X198909814Y-94540186D01*
X198797221Y-94402989D01*
X198713558Y-94246467D01*
X198713557Y-94246465D01*
X198662037Y-94076626D01*
X198649000Y-93944257D01*
X198649001Y-92855742D01*
X198662038Y-92723373D01*
X198713558Y-92553534D01*
X198797223Y-92397009D01*
X198854747Y-92326916D01*
X198909815Y-92259814D01*
X199011272Y-92176552D01*
X199047010Y-92147222D01*
X199203535Y-92063557D01*
X199373374Y-92012037D01*
X199550000Y-91994641D01*
X199726627Y-92012037D01*
X199726627Y-92012037D01*
G37*
G36*
X207026627Y-92012037D02*
G01*
X207196466Y-92063557D01*
X207352991Y-92147222D01*
X207388729Y-92176552D01*
X207490186Y-92259814D01*
X207545254Y-92326916D01*
X207602778Y-92397009D01*
X207686443Y-92553534D01*
X207737963Y-92723373D01*
X207737963Y-92723375D01*
X207751000Y-92855740D01*
X207751000Y-93944260D01*
X207746801Y-93986888D01*
X207737963Y-94076627D01*
X207686443Y-94246466D01*
X207602778Y-94402991D01*
X207573448Y-94438729D01*
X207490186Y-94540186D01*
X207352989Y-94652779D01*
X207248275Y-94708750D01*
X207196465Y-94736443D01*
X207026626Y-94787963D01*
X206850000Y-94805359D01*
X206673373Y-94787963D01*
X206503534Y-94736443D01*
X206347009Y-94652778D01*
X206270966Y-94590371D01*
X206209814Y-94540186D01*
X206097221Y-94402989D01*
X206013558Y-94246467D01*
X206013557Y-94246465D01*
X205962037Y-94076626D01*
X205949000Y-93944257D01*
X205949001Y-92855742D01*
X205962038Y-92723373D01*
X206013558Y-92553534D01*
X206097223Y-92397009D01*
X206154747Y-92326916D01*
X206209815Y-92259814D01*
X206311272Y-92176552D01*
X206347010Y-92147222D01*
X206503535Y-92063557D01*
X206673374Y-92012037D01*
X206850000Y-91994641D01*
X207026627Y-92012037D01*
X207026627Y-92012037D01*
G37*
G36*
X205101000Y-94576000D02*
G01*
X201299000Y-94576000D01*
X201299000Y-92224000D01*
X205101000Y-92224000D01*
X205101000Y-94576000D01*
X205101000Y-94576000D01*
G37*
G36*
X269328127Y-90579761D02*
G01*
X269348900Y-90581500D01*
X269355827Y-90581500D01*
X269450754Y-90600382D01*
X269454348Y-90601042D01*
X269549730Y-90617124D01*
X269556203Y-90619585D01*
X269576228Y-90625341D01*
X269583027Y-90626693D01*
X269645414Y-90652534D01*
X269672443Y-90663730D01*
X269675844Y-90665081D01*
X269766255Y-90699461D01*
X269772127Y-90703140D01*
X269790636Y-90712687D01*
X269797045Y-90715342D01*
X269877563Y-90769142D01*
X269880554Y-90771078D01*
X269962557Y-90822459D01*
X269967584Y-90827200D01*
X269983896Y-90840191D01*
X269989652Y-90844037D01*
X270058110Y-90912495D01*
X270060689Y-90914999D01*
X270131090Y-90981389D01*
X270135095Y-90987019D01*
X270148559Y-91002944D01*
X270153459Y-91007844D01*
X270207244Y-91088339D01*
X270209291Y-91091307D01*
X270265380Y-91170145D01*
X270268214Y-91176458D01*
X270278308Y-91194693D01*
X270282158Y-91200455D01*
X270319220Y-91289930D01*
X270320624Y-91293185D01*
X270360265Y-91381473D01*
X270361815Y-91388225D01*
X270368152Y-91408062D01*
X270370807Y-91414473D01*
X270389692Y-91509417D01*
X270390438Y-91512901D01*
X270412098Y-91607251D01*
X270412098Y-91607254D01*
X270412300Y-91614154D01*
X270414647Y-91634870D01*
X270416000Y-91641674D01*
X270416000Y-91738486D01*
X270416053Y-91742084D01*
X270417188Y-91780777D01*
X270416295Y-91793725D01*
X270416000Y-91802297D01*
X270416000Y-91873326D01*
X270410081Y-91903085D01*
X270409604Y-91905479D01*
X270407500Y-91921250D01*
X270369238Y-92476045D01*
X270340376Y-92647230D01*
X270258038Y-92863755D01*
X270135041Y-93060057D01*
X269976111Y-93228590D01*
X269787355Y-93362880D01*
X269576027Y-93457765D01*
X269350249Y-93509598D01*
X269118698Y-93516389D01*
X269118697Y-93516389D01*
X269073012Y-93508686D01*
X268890270Y-93477876D01*
X268673745Y-93395538D01*
X268477443Y-93272541D01*
X268308910Y-93113611D01*
X268174620Y-92924855D01*
X268079735Y-92713527D01*
X268027902Y-92487749D01*
X268022812Y-92314223D01*
X268063704Y-91721294D01*
X268064000Y-91712696D01*
X268064000Y-91641675D01*
X268082882Y-91546750D01*
X268083544Y-91543145D01*
X268089231Y-91509417D01*
X268099624Y-91447770D01*
X268102085Y-91441299D01*
X268107842Y-91421267D01*
X268109193Y-91414474D01*
X268111843Y-91408076D01*
X268146264Y-91324976D01*
X268147553Y-91321730D01*
X268181962Y-91231245D01*
X268185636Y-91225381D01*
X268195187Y-91206865D01*
X268197842Y-91200455D01*
X268251657Y-91119915D01*
X268253577Y-91116949D01*
X268304959Y-91034943D01*
X268309711Y-91029904D01*
X268322689Y-91013607D01*
X268326537Y-91007848D01*
X268394993Y-90939392D01*
X268397546Y-90936762D01*
X268418023Y-90915048D01*
X268463889Y-90866410D01*
X268469521Y-90862403D01*
X268485447Y-90848938D01*
X268490346Y-90844039D01*
X268570824Y-90790266D01*
X268573806Y-90788210D01*
X268652645Y-90732120D01*
X268658955Y-90729287D01*
X268677194Y-90719191D01*
X268682951Y-90715344D01*
X268682954Y-90715343D01*
X268682955Y-90715342D01*
X268772429Y-90678281D01*
X268775687Y-90676875D01*
X268863973Y-90637235D01*
X268870725Y-90635685D01*
X268890562Y-90629348D01*
X268896973Y-90626693D01*
X268991899Y-90607811D01*
X268995446Y-90607051D01*
X269089751Y-90585401D01*
X269092130Y-90585331D01*
X269096665Y-90585198D01*
X269117381Y-90582851D01*
X269124174Y-90581500D01*
X269220959Y-90581500D01*
X269224584Y-90581447D01*
X269321302Y-90578610D01*
X269328127Y-90579761D01*
X269328127Y-90579761D01*
G37*
G36*
X250278127Y-90579761D02*
G01*
X250298900Y-90581500D01*
X250305827Y-90581500D01*
X250400754Y-90600382D01*
X250404348Y-90601042D01*
X250499730Y-90617124D01*
X250506203Y-90619585D01*
X250526228Y-90625341D01*
X250533027Y-90626693D01*
X250595414Y-90652534D01*
X250622443Y-90663730D01*
X250625844Y-90665081D01*
X250716255Y-90699461D01*
X250722127Y-90703140D01*
X250740636Y-90712687D01*
X250747045Y-90715342D01*
X250827563Y-90769142D01*
X250830554Y-90771078D01*
X250912557Y-90822459D01*
X250917584Y-90827200D01*
X250933896Y-90840191D01*
X250939652Y-90844037D01*
X251008110Y-90912495D01*
X251010689Y-90914999D01*
X251081090Y-90981389D01*
X251085095Y-90987019D01*
X251098559Y-91002944D01*
X251103459Y-91007844D01*
X251157244Y-91088339D01*
X251159291Y-91091307D01*
X251215380Y-91170145D01*
X251218214Y-91176458D01*
X251228308Y-91194693D01*
X251232158Y-91200455D01*
X251269220Y-91289930D01*
X251270624Y-91293185D01*
X251310265Y-91381473D01*
X251311815Y-91388225D01*
X251318152Y-91408062D01*
X251320807Y-91414473D01*
X251339692Y-91509417D01*
X251340438Y-91512901D01*
X251362098Y-91607251D01*
X251362098Y-91607254D01*
X251362300Y-91614154D01*
X251364647Y-91634870D01*
X251366000Y-91641674D01*
X251366000Y-91738486D01*
X251366053Y-91742084D01*
X251367188Y-91780777D01*
X251366295Y-91793725D01*
X251366000Y-91802297D01*
X251366000Y-91873326D01*
X251360081Y-91903085D01*
X251359604Y-91905479D01*
X251357500Y-91921250D01*
X251319238Y-92476045D01*
X251290376Y-92647230D01*
X251208038Y-92863755D01*
X251085041Y-93060057D01*
X250926111Y-93228590D01*
X250737355Y-93362880D01*
X250526027Y-93457765D01*
X250300249Y-93509598D01*
X250068698Y-93516389D01*
X250068697Y-93516389D01*
X250023012Y-93508686D01*
X249840270Y-93477876D01*
X249623745Y-93395538D01*
X249427443Y-93272541D01*
X249258910Y-93113611D01*
X249124620Y-92924855D01*
X249029735Y-92713527D01*
X248977902Y-92487749D01*
X248972812Y-92314223D01*
X249013704Y-91721294D01*
X249014000Y-91712696D01*
X249014000Y-91641675D01*
X249032882Y-91546750D01*
X249033544Y-91543145D01*
X249039231Y-91509417D01*
X249049624Y-91447770D01*
X249052085Y-91441299D01*
X249057842Y-91421267D01*
X249059193Y-91414474D01*
X249061843Y-91408076D01*
X249096264Y-91324976D01*
X249097553Y-91321730D01*
X249131962Y-91231245D01*
X249135636Y-91225381D01*
X249145187Y-91206865D01*
X249147842Y-91200455D01*
X249201657Y-91119915D01*
X249203577Y-91116949D01*
X249254959Y-91034943D01*
X249259711Y-91029904D01*
X249272689Y-91013607D01*
X249276537Y-91007848D01*
X249344993Y-90939392D01*
X249347546Y-90936762D01*
X249368023Y-90915048D01*
X249413889Y-90866410D01*
X249419521Y-90862403D01*
X249435447Y-90848938D01*
X249440346Y-90844039D01*
X249520824Y-90790266D01*
X249523806Y-90788210D01*
X249602645Y-90732120D01*
X249608955Y-90729287D01*
X249627194Y-90719191D01*
X249632951Y-90715344D01*
X249632954Y-90715343D01*
X249632955Y-90715342D01*
X249722429Y-90678281D01*
X249725687Y-90676875D01*
X249813973Y-90637235D01*
X249820725Y-90635685D01*
X249840562Y-90629348D01*
X249846973Y-90626693D01*
X249941899Y-90607811D01*
X249945446Y-90607051D01*
X250039751Y-90585401D01*
X250042130Y-90585331D01*
X250046665Y-90585198D01*
X250067381Y-90582851D01*
X250074174Y-90581500D01*
X250170959Y-90581500D01*
X250174584Y-90581447D01*
X250271302Y-90578610D01*
X250278127Y-90579761D01*
X250278127Y-90579761D01*
G37*
G36*
X207026627Y-87512037D02*
G01*
X207196466Y-87563557D01*
X207352991Y-87647222D01*
X207388729Y-87676552D01*
X207490186Y-87759814D01*
X207573448Y-87861271D01*
X207602778Y-87897009D01*
X207686443Y-88053534D01*
X207737963Y-88223373D01*
X207751000Y-88355742D01*
X207751000Y-89444258D01*
X207737963Y-89576627D01*
X207686443Y-89746466D01*
X207602778Y-89902991D01*
X207573448Y-89938729D01*
X207490186Y-90040186D01*
X207352989Y-90152779D01*
X207196467Y-90236442D01*
X207196465Y-90236443D01*
X207026626Y-90287963D01*
X206850000Y-90305359D01*
X206673373Y-90287963D01*
X206503534Y-90236443D01*
X206347009Y-90152778D01*
X206311271Y-90123448D01*
X206209814Y-90040186D01*
X206097221Y-89902989D01*
X206013558Y-89746467D01*
X206013557Y-89746465D01*
X205962037Y-89576626D01*
X205949000Y-89444257D01*
X205949001Y-88355742D01*
X205962038Y-88223373D01*
X206013558Y-88053534D01*
X206097223Y-87897009D01*
X206126553Y-87861271D01*
X206209815Y-87759814D01*
X206311272Y-87676552D01*
X206347010Y-87647222D01*
X206503535Y-87563557D01*
X206673374Y-87512037D01*
X206850000Y-87494641D01*
X207026627Y-87512037D01*
X207026627Y-87512037D01*
G37*
G36*
X199726627Y-87512037D02*
G01*
X199896466Y-87563557D01*
X200052991Y-87647222D01*
X200088729Y-87676552D01*
X200190186Y-87759814D01*
X200273448Y-87861271D01*
X200302778Y-87897009D01*
X200386443Y-88053534D01*
X200437963Y-88223373D01*
X200451000Y-88355742D01*
X200451000Y-89444258D01*
X200437963Y-89576627D01*
X200386443Y-89746466D01*
X200302778Y-89902991D01*
X200273448Y-89938729D01*
X200190186Y-90040186D01*
X200052989Y-90152779D01*
X199896467Y-90236442D01*
X199896465Y-90236443D01*
X199726626Y-90287963D01*
X199550000Y-90305359D01*
X199373373Y-90287963D01*
X199203534Y-90236443D01*
X199047009Y-90152778D01*
X199011271Y-90123448D01*
X198909814Y-90040186D01*
X198797221Y-89902989D01*
X198713558Y-89746467D01*
X198713557Y-89746465D01*
X198662037Y-89576626D01*
X198649000Y-89444257D01*
X198649001Y-88355742D01*
X198662038Y-88223373D01*
X198713558Y-88053534D01*
X198797223Y-87897009D01*
X198826553Y-87861271D01*
X198909815Y-87759814D01*
X199011272Y-87676552D01*
X199047010Y-87647222D01*
X199203535Y-87563557D01*
X199373374Y-87512037D01*
X199550000Y-87494641D01*
X199726627Y-87512037D01*
X199726627Y-87512037D01*
G37*
M02*
