M48
; DRILL file {KiCad (5.1.4)-1} date 10/4/2023 8:32:12 AM
; FORMAT={-:-/ absolute / inch / decimal}
; #@! TF.CreationDate,2023-10-04T08:32:12-04:00
; #@! TF.GenerationSoftware,Kicad,Pcbnew,(5.1.4)-1
; #@! TF.FileFunction,Plated,1,2,PTH
FMAT,2
INCH
T1C0.0157
T2C0.0276
T3C0.0579
%
G90
G05
T1
X7.9062Y-4.6875
X8.3125Y-3.9062
X8.456Y-3.8438
X8.5312Y-4.3438
X8.5625Y-4.1562
X9.0269Y-4.61
X9.0938Y-4.625
X9.3438Y-4.1562
T3
X9.6Y-4.4625
X9.6516Y-4.405
X9.8484Y-4.3853
X9.85Y-4.3625
X9.6Y-3.7125
X9.6516Y-3.655
X9.8484Y-3.6353
X9.85Y-3.6125
X10.35Y-3.7125
X10.4016Y-3.655
X10.5984Y-3.6353
X10.6Y-3.6125
X10.35Y-4.4625
X10.4016Y-4.405
X10.5984Y-4.3853
X10.6Y-4.3625
T2
G00X7.8563Y-3.4764
M15
G01X7.8563Y-3.5236
M16
G05
G00X7.8563Y-3.6535
M15
G01X7.8563Y-3.7008
M16
G05
G00X8.1437Y-3.4764
M15
G01X8.1437Y-3.5236
M16
G05
G00X8.1437Y-3.6535
M15
G01X8.1437Y-3.7008
M16
G05
T0
M30
